<svg width="70" height="70" viewBox="0 0 70 70" fill="none" xmlns="http://www.w3.org/2000/svg">
<g clip-path="url(#clip0)">
<path d="M41.4297 8.41878C40.6944 8.24173 39.9571 8.69359 39.7802 9.42749C39.6032 10.1615 40.0548 10.9001 40.7889 11.077C51.8701 13.7483 59.6094 23.5858 59.6094 34.9998C59.6094 48.5694 48.5698 59.6091 35.0001 59.6091C21.4304 59.6091 10.3908 48.5694 10.3908 34.9998C10.3908 23.5862 18.1296 13.7487 29.2103 11.0771C29.9444 10.9001 30.396 10.1615 30.219 9.42763C30.042 8.69359 29.3032 8.24228 28.5695 8.41892C22.7071 9.83245 17.3957 13.2213 13.6139 17.9612C9.7165 22.846 7.65643 28.7378 7.65643 34.9998C7.65643 50.0771 19.9228 62.3435 35.0001 62.3435C50.0774 62.3435 62.3437 50.0772 62.3437 34.9998C62.3437 28.7377 60.2836 22.8457 56.3859 17.9608C52.604 13.221 47.2924 9.83218 41.4297 8.41878Z" fill="black"/>
<path d="M69.1757 31.7115L67.5762 28.7274L67.843 25.0382C68.0995 22.6735 67.1562 20.3657 65.3166 18.8607L62.6615 16.6866L61.6171 13.5404C61.0322 11.1349 59.2053 9.20141 56.8348 8.48542L53.5576 7.4953L51.0477 4.59414C49.5627 2.84729 47.3149 1.93866 45.0346 2.16275L41.633 2.50167L38.2893 0.824274C36.2287 -0.274257 33.7718 -0.275214 31.711 0.824137L28.7269 2.42347L25.0379 2.15659C22.6722 1.90011 20.3653 2.84347 18.8604 4.68301L16.6862 7.33808L13.5402 8.38247C11.1345 8.96735 9.20099 10.7943 8.48499 13.1646L7.49502 16.4419L4.59386 18.9519C2.84715 20.4369 1.93797 22.6843 2.16233 24.965L2.50125 28.3666L0.823854 31.7103C-0.274813 33.771 -0.275634 36.2277 0.823581 38.2888L2.42305 41.2728L2.15617 44.962C1.89983 47.3266 2.84304 49.6343 4.68259 51.1394L7.33766 53.3135L8.38205 56.4597C8.96679 58.8653 10.7938 60.7987 13.1643 61.5147L16.4414 62.5047L18.9515 65.406C20.4366 67.1527 22.6835 68.0619 24.9646 67.8374L28.366 67.4985L31.7095 69.1756C32.7402 69.7252 33.87 70.0001 34.9998 70.0001C36.1289 70.0001 37.2579 69.7256 38.2881 69.1761L41.2722 67.5768L44.9613 67.8437C47.3258 68.0996 49.6336 67.1568 51.1389 65.3173L53.313 62.6622L56.4593 61.6179C58.8647 61.0331 60.798 59.2061 61.514 56.8357L62.5041 53.5585L65.4054 51.0485C67.1521 49.5635 68.0613 47.3161 67.837 45.0353L67.4979 41.634L69.1752 38.2903C70.2738 36.2294 70.2749 33.7725 69.1757 31.7115ZM66.7565 37.0143C66.7505 37.0255 66.7446 37.0367 66.739 37.0479L64.8761 40.7618C64.76 40.9932 64.712 41.2528 64.7376 41.5105L65.1159 45.3045C65.2523 46.6917 64.6985 48.0603 63.6254 48.9727L60.4155 51.7498C60.2197 51.9192 60.0762 52.1405 60.0014 52.3882L58.8965 56.0448C58.4562 57.5027 57.2598 58.6237 55.7743 58.97C55.7337 58.9794 55.6935 58.9908 55.654 59.0039L52.0755 60.1916C51.8299 60.2732 51.6123 60.4227 51.4484 60.623L49.023 63.5852C48.1018 64.7112 46.6867 65.2862 45.2385 65.1233C45.2205 65.1212 45.2023 65.1196 45.1844 65.1182L41.0744 64.821C40.8156 64.8024 40.558 64.8573 40.3299 64.9796L36.9989 66.7648C35.7428 67.4348 34.2424 67.432 32.9853 66.757C32.9741 66.7512 32.9629 66.7453 32.9517 66.7397L29.2379 64.8768C29.047 64.7811 28.837 64.7316 28.6248 64.7316C28.5797 64.7316 28.5344 64.7337 28.4892 64.7383L24.6953 65.1163C23.3081 65.2533 21.9394 64.6989 21.027 63.6259L18.25 60.4161C18.0807 60.2203 17.8592 60.0766 17.6113 60.0018L13.9548 58.8973C12.4967 58.4569 11.3759 57.2605 11.0296 55.7749C11.0202 55.7343 11.0088 55.6942 10.9957 55.6546L9.80802 52.076C9.72653 51.8303 9.57696 51.6129 9.37667 51.449L6.41467 49.0235C5.28866 48.1023 4.71362 46.6875 4.87659 45.2391C4.87864 45.2211 4.88028 45.203 4.88165 45.1848L5.17888 41.0747C5.19761 40.8165 5.14251 40.5584 5.02028 40.3302L3.23488 36.9995C2.56496 35.7433 2.56783 34.243 3.24254 32.9859C3.24855 32.9748 3.25429 32.9636 3.2599 32.9524L5.12282 29.2384C5.23889 29.0071 5.28688 28.7475 5.26118 28.4899L4.88315 24.6957C4.74671 23.3084 5.30055 21.9399 6.37366 21.0274L9.58353 18.2504C9.77931 18.081 9.92286 17.8596 9.99778 17.6119L11.1025 13.9552C11.5428 12.4973 12.7393 11.3765 14.2248 11.03C14.2654 11.0206 14.3055 11.0092 14.3451 10.9961L17.9235 9.8083C18.1692 9.72682 18.3865 9.57725 18.5505 9.37696L20.9761 6.41482C21.8973 5.28894 23.3125 4.71418 24.7605 4.87688C24.7785 4.87893 24.7966 4.88057 24.8146 4.88193L28.9246 5.17916C29.1821 5.19748 29.4409 5.14279 29.6691 5.02057L32.9999 3.2353C34.256 2.56538 35.7564 2.56811 37.0134 3.24296C37.0245 3.24883 37.0357 3.25471 37.0471 3.26032L40.761 5.12324C40.9923 5.23932 41.252 5.28744 41.5095 5.2616L45.3036 4.88357C46.6908 4.74686 48.0594 5.30098 48.9719 6.37408L51.7489 9.58395C51.9182 9.77973 52.1397 9.92328 52.3875 9.9982L56.0441 11.1029C57.502 11.5433 58.6228 12.7398 58.9693 14.2253C58.9787 14.2659 58.9901 14.3059 59.0032 14.3456L60.191 17.9239C60.2726 18.1696 60.4221 18.387 60.6223 18.5509L63.5845 20.9764C64.7105 21.8976 65.2854 23.3122 65.1224 24.7608C65.1204 24.7788 65.1187 24.7969 65.1175 24.815L64.8203 28.9252C64.8015 29.1833 64.8566 29.4414 64.9787 29.6696L66.7641 33.0005C67.4342 34.2569 67.4313 35.7573 66.7565 37.0143Z" fill="black"/>
<path d="M29.0667 27.5507C28.8474 27.0886 28.3778 26.7682 27.8323 26.7682H20.6085C19.8534 26.7682 19.2413 27.3803 19.2413 28.1354V48.8299C19.2413 49.585 19.8534 50.1971 20.6085 50.1971H27.8323C28.3989 50.1971 28.885 49.8524 29.0922 49.3612C30.1344 49.5075 31.2081 49.8039 32.3259 50.1134C34.0064 50.5787 35.744 51.0598 37.5494 51.0598H45.442C47.8818 51.0598 49.8589 49.7663 50.7308 47.5994C51.1554 46.5437 51.2298 45.448 50.9817 44.5308C51.4356 44.1227 51.8192 43.6147 52.1093 43.0214C52.6973 41.8194 52.8148 40.4677 52.4814 39.3292C53.1027 38.729 53.5662 37.9365 53.8084 37.002C54.035 36.1284 54.031 35.2664 53.8295 34.5195C55.0627 33.794 55.8933 32.4761 55.8933 30.991C55.8933 29.8263 55.4398 28.7531 54.6162 27.9692C53.8254 27.2164 52.7721 26.8017 51.6505 26.8017L40.5256 26.802C39.6804 25.7417 39.4173 24.3029 39.8986 23.1448C40.8862 20.7678 40.825 18.7557 39.7005 16.621C38.8657 15.0366 36.621 13.4591 34.7345 13.7285C33.5941 13.8914 32.769 14.6974 32.527 15.8846C32.4558 16.234 32.4362 16.6113 32.4137 17.0482C32.3579 18.1261 32.2813 19.6024 31.3508 21.3851C30.7201 22.5935 30.5097 23.8364 30.3241 24.9331C30.0582 26.504 29.9292 27.2607 29.0667 27.5507ZM21.9757 29.5026H26.4651V47.4627H21.9757V29.5026ZM33.0202 25.3894C33.1794 24.4487 33.344 23.4758 33.775 22.6504C34.9812 20.3393 35.0834 18.3677 35.1445 17.1898C35.1608 16.876 35.1761 16.5796 35.2064 16.4306C35.2066 16.4296 35.2068 16.4285 35.2071 16.4275C35.6814 16.4341 36.8485 17.0744 37.2813 17.8958C38.0302 19.3171 38.0551 20.4555 37.3737 22.0959C36.7591 23.5749 36.8053 25.2911 37.4132 26.817C36.7481 26.9096 36.2356 27.479 36.2356 28.1696C36.2356 28.9246 36.8479 29.5368 37.6028 29.5368L51.6505 29.5364C52.0671 29.5364 52.4508 29.6832 52.7308 29.9498C52.9262 30.1356 53.1589 30.4673 53.1589 30.9912C53.1589 31.7245 52.4866 32.3586 51.6908 32.376L48.1718 32.4526C47.417 32.469 46.8183 33.0942 46.8347 33.8491C46.851 34.594 47.4597 35.1867 48.2011 35.1867C48.2111 35.1867 48.2212 35.1867 48.2314 35.1864L51.1621 35.1227C51.2577 35.3935 51.3075 35.9102 51.1062 36.502C50.9349 37.0054 50.4751 37.8498 49.3185 37.8498C48.5635 37.8498 47.9513 38.4619 47.9513 39.217C47.9513 39.9721 48.5635 40.5842 49.3185 40.5842C49.5257 40.5842 49.7292 40.5713 49.9282 40.546C49.9452 40.9329 49.8656 41.3861 49.6533 41.8201C49.4023 42.3331 48.9061 42.9447 47.968 42.9447C47.213 42.9447 46.6008 43.5568 46.6008 44.3119C46.6008 45.067 47.213 45.6791 47.968 45.6791C48.1095 45.6791 48.2495 45.6728 48.3877 45.6604C48.3841 45.9227 48.3308 46.2507 48.1817 46.6095C47.9673 47.1254 47.271 48.3254 45.4422 48.3254H37.5496C36.1159 48.3254 34.6295 47.9139 33.0558 47.4782C31.8036 47.1315 30.5197 46.7763 29.1997 46.6177V30.3177C32.2778 29.7599 32.7022 27.2681 33.0202 25.3894Z" fill="black"/>
<path d="M35.0003 10.3906C35.7554 10.3906 36.3674 9.77853 36.3674 9.02344C36.3674 8.26834 35.7554 7.65625 35.0003 7.65625H34.9993C34.2442 7.65625 33.6327 8.26834 33.6327 9.02344C33.6327 9.77853 34.2452 10.3906 35.0003 10.3906Z" fill="black"/>
</g>
<defs>
<clipPath id="clip0">
<rect width="70" height="70" fill="white"/>
</clipPath>
</defs>
</svg>
