<svg width="70" height="70" viewBox="0 0 70 70" fill="none" xmlns="http://www.w3.org/2000/svg">
<path d="M16.4062 61.25C17.0552 61.25 17.6896 61.0576 18.2292 60.697C18.7688 60.3365 19.1894 59.824 19.4377 59.2244C19.6861 58.6249 19.7511 57.9651 19.6244 57.3286C19.4978 56.6921 19.1853 56.1074 18.7264 55.6486C18.2676 55.1897 17.6829 54.8772 17.0464 54.7505C16.4099 54.6239 15.7501 54.6889 15.1506 54.9373C14.551 55.1856 14.0385 55.6062 13.678 56.1458C13.3174 56.6854 13.125 57.3198 13.125 57.9688C13.126 58.8387 13.472 59.6727 14.0871 60.2879C14.7023 60.903 15.5363 61.249 16.4062 61.25ZM16.4062 56.875C16.6226 56.875 16.834 56.9391 17.0139 57.0593C17.1938 57.1795 17.334 57.3503 17.4167 57.5502C17.4995 57.75 17.5212 57.97 17.479 58.1821C17.4368 58.3943 17.3326 58.5892 17.1796 58.7421C17.0267 58.8951 16.8318 58.9993 16.6196 59.0415C16.4075 59.0837 16.1875 59.062 15.9877 58.9792C15.7878 58.8965 15.617 58.7563 15.4968 58.5764C15.3766 58.3965 15.3125 58.1851 15.3125 57.9688C15.3128 57.6788 15.4282 57.4008 15.6332 57.1957C15.8383 56.9907 16.1163 56.8753 16.4062 56.875Z" fill="black"/>
<path d="M54.6875 54.6875C54.0385 54.6875 53.4041 54.8799 52.8645 55.2405C52.3249 55.601 51.9044 56.1135 51.656 56.7131C51.4077 57.3126 51.3427 57.9724 51.4693 58.6089C51.5959 59.2454 51.9084 59.8301 52.3673 60.2889C52.8262 60.7478 53.4109 61.0603 54.0474 61.187C54.6839 61.3136 55.3436 61.2486 55.9432 61.0002C56.5428 60.7519 57.0552 60.3313 57.4158 59.7917C57.7763 59.2521 57.9688 58.6177 57.9688 57.9687C57.9678 57.0988 57.6218 56.2648 57.0066 55.6496C56.3915 55.0345 55.5574 54.6885 54.6875 54.6875ZM54.6875 59.0625C54.4712 59.0625 54.2597 58.9984 54.0799 58.8782C53.9 58.758 53.7598 58.5872 53.677 58.3873C53.5942 58.1875 53.5726 57.9675 53.6148 57.7554C53.657 57.5432 53.7611 57.3483 53.9141 57.1954C54.0671 57.0424 54.262 56.9382 54.4741 56.896C54.6863 56.8538 54.9062 56.8755 55.1061 56.9583C55.3059 57.041 55.4767 57.1812 55.5969 57.3611C55.7171 57.541 55.7813 57.7524 55.7813 57.9687C55.7809 58.2587 55.6656 58.5367 55.4605 58.7418C55.2555 58.9468 54.9775 59.0622 54.6875 59.0625Z" fill="black"/>
<path d="M65.625 21.875H60.2396C59.6939 20.4534 58.9391 19.1213 58.0002 17.9225L59.8363 16.0863C59.938 15.9847 60.0186 15.8641 60.0736 15.7313C60.1286 15.5985 60.1569 15.4562 60.1569 15.3125C60.1569 15.1688 60.1286 15.0265 60.0736 14.8937C60.0186 14.7609 59.938 14.6403 59.8363 14.5387C59.7347 14.4371 59.6141 14.3564 59.4813 14.3014C59.3485 14.2464 59.2062 14.2181 59.0625 14.2181C58.9188 14.2181 58.7765 14.2464 58.6437 14.3014C58.5109 14.3564 58.3903 14.4371 58.2887 14.5387L56.5305 16.2969C53.9563 13.8198 50.5947 12.3243 47.0312 12.0709V10.9375H49.2188C49.5088 10.9375 49.787 10.8223 49.9921 10.6171C50.1973 10.412 50.3125 10.1338 50.3125 9.84375V6.5625C50.3125 6.27242 50.1973 5.99422 49.9921 5.7891C49.787 5.58398 49.5088 5.46875 49.2188 5.46875H42.6562C42.3662 5.46875 42.088 5.58398 41.8829 5.7891C41.6777 5.99422 41.5625 6.27242 41.5625 6.5625V9.84375C41.5625 10.1338 41.6777 10.412 41.8829 10.6171C42.088 10.8223 42.3662 10.9375 42.6562 10.9375H44.8438V12.0709C41.9386 12.2828 39.1537 13.3173 36.8147 15.0534C34.4758 16.7895 32.6793 19.1556 31.6354 21.875H25.1562C24.8662 21.875 24.588 21.9902 24.3829 22.1954C24.1777 22.4005 24.0625 22.6787 24.0625 22.9688V26.25H13.125C12.9322 26.2502 12.7428 26.3012 12.5759 26.3979C12.4091 26.4946 12.2707 26.6337 12.1748 26.801L3.4248 42.1135C3.33064 42.2789 3.28117 42.4659 3.28125 42.6562V57.9688C3.28125 58.2588 3.39648 58.537 3.6016 58.7421C3.80672 58.9473 4.08492 59.0625 4.375 59.0625H9.93672C10.0875 59.9475 10.418 60.7923 10.9078 61.5448C11.3976 62.2972 12.0363 62.9413 12.7846 63.4375H2.1875C1.89742 63.4375 1.61922 63.5527 1.4141 63.7579C1.20898 63.963 1.09375 64.2412 1.09375 64.5312C1.09375 64.8213 1.20898 65.0995 1.4141 65.3046C1.61922 65.5098 1.89742 65.625 2.1875 65.625H63.4375C63.7276 65.625 64.0058 65.5098 64.2109 65.3046C64.416 65.0995 64.5312 64.8213 64.5312 64.5312C64.5312 64.2412 64.416 63.963 64.2109 63.7579C64.0058 63.5527 63.7276 63.4375 63.4375 63.4375H58.3092C59.0574 62.9413 59.6961 62.2972 60.1859 61.5448C60.6757 60.7923 61.0062 59.9475 61.157 59.0625H65.625C65.9151 59.0625 66.1933 58.9473 66.3984 58.7421C66.6035 58.537 66.7188 58.2588 66.7188 57.9688V22.9688C66.7188 22.6787 66.6035 22.4005 66.3984 22.1954C66.1933 21.9902 65.9151 21.875 65.625 21.875ZM43.75 8.75V7.65625H48.125V8.75H43.75ZM45.9375 14.2188C48.5334 14.2188 51.071 14.9885 53.2294 16.4307C55.3878 17.8729 57.07 19.9227 58.0634 22.321C59.0568 24.7193 59.3167 27.3583 58.8103 29.9043C58.3039 32.4503 57.0538 34.789 55.2183 36.6245C53.3827 38.4601 51.0441 39.7101 48.4981 40.2166C45.9521 40.723 43.3131 40.4631 40.9148 39.4697C38.5165 38.4763 36.4667 36.794 35.0245 34.6356C33.5823 32.4772 32.8125 29.9396 32.8125 27.3438C32.8167 23.8641 34.2008 20.5281 36.6613 18.0676C39.1218 15.6071 42.4578 14.2229 45.9375 14.2188ZM11.885 31.7188H19.6875V41.5625H6.26035L11.885 31.7188ZM5.46875 47.0312H7.65625C7.94633 47.0312 8.22453 47.1465 8.42965 47.3516C8.63477 47.5567 8.75 47.8349 8.75 48.125C8.75 48.4151 8.63477 48.6933 8.42965 48.8984C8.22453 49.1035 7.94633 49.2188 7.65625 49.2188H5.46875V47.0312ZM9.93672 56.875H5.46875V51.4062H7.65625C8.52649 51.4062 9.36109 51.0605 9.97644 50.4452C10.5918 49.8298 10.9375 48.9952 10.9375 48.125C10.9375 47.2548 10.5918 46.4202 9.97644 45.8048C9.36109 45.1895 8.52649 44.8438 7.65625 44.8438H5.46875V43.75H20.7812C21.0713 43.75 21.3495 43.6348 21.5546 43.4296C21.7598 43.2245 21.875 42.9463 21.875 42.6562V30.625C21.875 30.3349 21.7598 30.0567 21.5546 29.8516C21.3495 29.6465 21.0713 29.5312 20.7812 29.5312H13.1346L13.7594 28.4375H24.0625V56.875H22.8758C22.6176 55.3459 21.8261 53.9578 20.6418 52.9567C19.4575 51.9556 17.957 51.4064 16.4062 51.4064C14.8555 51.4064 13.355 51.9556 12.1707 52.9567C10.9864 53.9578 10.1949 55.3459 9.93672 56.875ZM16.4062 62.3438C15.541 62.3438 14.6951 62.0872 13.9756 61.6064C13.2562 61.1257 12.6954 60.4424 12.3643 59.643C12.0331 58.8436 11.9465 57.9639 12.1153 57.1152C12.2841 56.2666 12.7008 55.487 13.3127 54.8752C13.9245 54.2633 14.7041 53.8466 15.5527 53.6778C16.4014 53.509 17.2811 53.5956 18.0805 53.9268C18.8799 54.2579 19.5632 54.8187 20.0439 55.5381C20.5247 56.2576 20.7812 57.1035 20.7812 57.9688C20.7802 59.1287 20.3189 60.2409 19.4986 61.0611C18.6784 61.8814 17.5662 62.3427 16.4062 62.3438ZM20.0279 63.4375C20.7762 62.9413 21.4149 62.2972 21.9047 61.5448C22.3945 60.7923 22.725 59.9475 22.8758 59.0625H48.218C48.3688 59.9475 48.6993 60.7923 49.1891 61.5448C49.6789 62.2972 50.3176 62.9413 51.0658 63.4375H20.0279ZM54.6875 62.3438C53.8222 62.3438 52.9763 62.0872 52.2569 61.6064C51.5374 61.1257 50.9767 60.4424 50.6455 59.643C50.3144 58.8436 50.2278 57.9639 50.3966 57.1152C50.5654 56.2666 50.9821 55.487 51.5939 54.8752C52.2058 54.2633 52.9853 53.8466 53.834 53.6778C54.6826 53.509 55.5623 53.5956 56.3617 53.9268C57.1612 54.2579 57.8444 54.8187 58.3252 55.5381C58.8059 56.2576 59.0625 57.1035 59.0625 57.9688C59.0614 59.1287 58.6001 60.2409 57.7799 61.0611C56.9597 61.8814 55.8475 62.3427 54.6875 62.3438ZM64.5312 56.875H61.157C60.8988 55.3459 60.1074 53.9578 58.9231 52.9567C57.7388 51.9556 56.2382 51.4064 54.6875 51.4064C53.1368 51.4064 51.6362 51.9556 50.4519 52.9567C49.2676 53.9578 48.4762 55.3459 48.218 56.875H26.25V49.2188H64.5312V56.875ZM64.5312 47.0312H26.25V24.0625H30.9805C30.49 26.2988 30.5073 28.6165 31.031 30.8453C31.5546 33.074 32.5714 35.1569 34.0064 36.9408C35.4415 38.7246 37.2582 40.164 39.323 41.1529C41.3878 42.1419 43.6481 42.6552 45.9375 42.6552C48.2269 42.6552 50.4872 42.1419 52.552 41.1529C54.6168 40.164 56.4336 38.7246 57.8686 36.9408C59.3036 35.1569 60.3204 33.074 60.844 30.8453C61.3677 28.6165 61.385 26.2988 60.8945 24.0625H64.5312V47.0312Z" fill="black"/>
<path d="M45.9375 39.375C48.317 39.375 50.6432 38.6694 52.6217 37.3474C54.6002 36.0254 56.1423 34.1463 57.0529 31.9479C57.9635 29.7495 58.2018 27.3304 57.7376 24.9966C57.2733 22.6627 56.1275 20.519 54.4449 18.8364C52.7623 17.1538 50.6185 16.0079 48.2847 15.5437C45.9508 15.0795 43.5318 15.3177 41.3333 16.2283C39.1349 17.1389 37.2559 18.681 35.9339 20.6596C34.6119 22.6381 33.9062 24.9642 33.9062 27.3438C33.9099 30.5335 35.1786 33.5916 37.4341 35.8471C39.6896 38.1026 42.7477 39.3714 45.9375 39.375ZM45.9375 17.5C47.8844 17.5 49.7876 18.0773 51.4064 19.159C53.0252 20.2406 54.2869 21.778 55.0319 23.5767C55.777 25.3754 55.9719 27.3547 55.5921 29.2642C55.2123 31.1737 54.2747 32.9277 52.8981 34.3043C51.5214 35.681 49.7674 36.6185 47.8579 36.9984C45.9484 37.3782 43.9692 37.1832 42.1705 36.4382C40.3717 35.6931 38.8344 34.4314 37.7527 32.8126C36.6711 31.1939 36.0937 29.2907 36.0937 27.3438C36.0967 24.7339 37.1347 22.2318 38.9802 20.3864C40.8256 18.541 43.3277 17.5029 45.9375 17.5Z" fill="black"/>
<path d="M47.3516 30.3047C47.4531 30.4062 47.5737 30.4868 47.7064 30.5418C47.8391 30.5967 47.9814 30.625 48.125 30.625C48.2686 30.625 48.4109 30.5967 48.5436 30.5418C48.6763 30.4868 48.7969 30.4062 48.8984 30.3047C49 30.2031 49.0806 30.0825 49.1355 29.9498C49.1905 29.8171 49.2188 29.6749 49.2188 29.5312C49.2188 29.3876 49.1905 29.2454 49.1355 29.1127C49.0806 28.98 49 28.8594 48.8984 28.7578L47.0313 26.8908V22.9687C47.0313 22.6787 46.916 22.4005 46.7109 22.1954C46.5058 21.9902 46.2276 21.875 45.9375 21.875C45.6474 21.875 45.3692 21.9902 45.1641 22.1954C44.959 22.4005 44.8438 22.6787 44.8438 22.9687V27.3437C44.8437 27.4874 44.872 27.6296 44.927 27.7623C44.982 27.895 45.0625 28.0156 45.1641 28.1172L47.3516 30.3047Z" fill="black"/>
<path d="M67.8125 63.4375H66.7188C66.4287 63.4375 66.1505 63.5527 65.9454 63.7579C65.7402 63.963 65.625 64.2412 65.625 64.5312C65.625 64.8213 65.7402 65.0995 65.9454 65.3046C66.1505 65.5098 66.4287 65.625 66.7188 65.625H67.8125C68.1026 65.625 68.3808 65.5098 68.5859 65.3046C68.791 65.0995 68.9062 64.8213 68.9062 64.5312C68.9062 64.2412 68.791 63.963 68.5859 63.7579C68.3808 63.5527 68.1026 63.4375 67.8125 63.4375Z" fill="black"/>
</svg>
