<svg width="70" height="70" viewBox="0 0 70 70" fill="none" xmlns="http://www.w3.org/2000/svg">
<path d="M68.9746 67.9492H60.7031V53.9193C65.9153 53.3419 70 48.4133 70 42.4375C70 36.5601 66.0479 31.6984 60.9589 30.9904C61.9749 29.7161 62.6691 28.1843 62.9352 26.52C63.0245 25.9608 62.6436 25.435 62.0844 25.3456C61.5233 25.2573 60.9993 25.6372 60.91 26.1964C60.4745 28.9223 58.5699 31.1886 56.0064 32.1173C55.3942 32.339 54.938 32.8724 54.8152 33.5088C54.6246 34.4962 53.9304 36.9126 51.6061 38.0249C49.6007 38.9847 47.6334 38.3964 46.8818 38.0993C45.6165 37.597 44.7692 36.7767 44.2444 36.0991V31.6679L48.724 27.1886C49.1244 26.788 49.1244 26.1388 48.724 25.7384C48.3234 25.3382 47.6741 25.3379 47.2739 25.7384L44.2445 28.7677V21.9786C44.2445 21.4122 43.7855 20.9532 43.2191 20.9532C42.6527 20.9532 42.1937 21.4122 42.1937 21.9786V26.7997L39.1645 23.7705C38.7639 23.3702 38.1147 23.3702 37.7143 23.7705C37.3138 24.1711 37.3138 24.8202 37.7143 25.2206L42.1939 29.7002V36.0998C41.667 36.7782 40.8183 37.5985 39.5575 38.099C38.8046 38.3965 36.8374 38.9849 34.8322 38.0253C33.8611 37.5599 33.0779 36.8193 32.4956 35.8282C32.674 31.296 31.3636 24.6724 29.4153 18.3251C29.681 18.1814 29.9549 18.0518 30.2362 17.9405C31.1495 17.5815 31.7048 16.6562 31.5874 15.6931C31.5656 15.5099 31.555 15.3327 31.555 15.1514C31.555 13.0706 32.964 11.2689 34.9814 10.7696C35.9521 10.5294 36.63 9.65781 36.63 8.63953C36.63 5.00664 39.5861 2.05105 43.2198 2.05105C46.8526 2.05105 49.8081 5.00664 49.8081 8.65047C49.8081 9.65795 50.486 10.5294 51.4568 10.7697C53.6688 11.3173 55.1255 13.4344 54.851 15.6907C54.7337 16.6555 55.2888 17.5804 56.2017 17.9404C58.1209 18.6957 59.6686 20.2243 60.4477 22.1337C60.6643 22.6643 61.2709 22.9053 61.7844 22.6957C62.3089 22.4818 62.5604 21.8833 62.3465 21.359C61.3568 18.9334 59.3908 16.9918 56.9533 16.0323C56.9123 16.0162 56.8824 15.9741 56.8872 15.9365C57.2983 12.6239 55.1339 9.56894 51.9496 8.77898C51.8979 8.76613 51.8591 8.7109 51.8591 8.63953C51.8588 3.87557 47.9832 0 43.2195 0C38.455 0 34.5789 3.87557 34.5789 8.6502C34.5789 8.71062 34.5401 8.766 34.4887 8.77871C31.5537 9.50482 29.5039 12.1253 29.5039 15.1512C29.5039 15.4107 29.5196 15.6745 29.5512 15.9384C29.5724 16.1159 28.9196 16.2634 28.7768 16.349C28.5216 15.5936 28.2579 14.8508 27.9858 14.1284C23.5888 2.45123 19.1803 0 16.2563 0C11.1535 0 7.25115 7.1899 4.87594 13.2215C4.6684 13.7484 4.92734 14.3438 5.45426 14.5514C5.9809 14.7591 6.57658 14.5 6.78412 13.9731C9.76773 6.39625 13.2202 2.05078 16.2563 2.05078C19.4277 2.05078 23.0035 6.71631 26.0665 14.8511C28.952 22.5143 30.4618 30.7911 30.4618 35.0066C30.4618 43.4409 24.6377 50.3712 17.2817 50.9651V42.6437C17.2817 42.6433 17.2817 42.6427 17.2817 42.6423V38.7216L21.5611 34.4422C21.9615 34.0416 21.9615 33.3925 21.5611 32.992C21.1605 32.5917 20.5114 32.5917 20.1109 32.992L17.2818 35.8211V31.5335C17.2818 30.9671 16.8228 30.5081 16.2564 30.5081C15.69 30.5081 15.231 30.9671 15.231 31.5335V38.2962V38.2975V40.1674L12.4018 37.3382C12.0012 36.9379 11.352 36.9379 10.9516 37.3382C10.5511 37.7388 10.5511 38.3879 10.9516 38.7883L15.231 43.0678V50.9651C7.87486 50.3712 2.05078 43.4409 2.05078 35.0066C2.05078 31.0442 3.32514 24.3666 5.22197 18.3902C5.39328 17.8505 5.09455 17.274 4.55478 17.1027C4.01584 16.9318 3.43875 17.2303 3.2673 17.7699C1.28256 24.0234 0 30.7892 0 35.0066C0 44.5776 6.74311 52.4312 15.2309 53.0209V67.9492H1.02539C0.458965 67.9492 0 68.4082 0 68.9746C0 69.541 0.458965 70 1.02539 70H68.9746C69.541 70 70 69.541 70 68.9746C70 68.4082 69.541 67.9492 68.9746 67.9492ZM42.1936 67.9492H17.2817V53.0209C24.6539 52.5088 30.7091 46.5158 32.1735 38.6779C32.7 39.1605 33.2914 39.5608 33.9462 39.8746C36.6796 41.1831 39.308 40.4022 40.3125 40.0053C41.0416 39.7158 41.6631 39.3466 42.1936 38.9491V67.9492ZM58.6523 67.9492H44.2444V38.9498C44.7746 39.3468 45.3962 39.716 46.1266 40.0058C46.7132 40.2377 47.8555 40.6011 49.2499 40.6011C49.3284 40.6011 49.3555 41.8182 49.3555 42.4376C49.3555 48.4135 53.4402 53.342 58.6523 53.9194V67.9492ZM59.6777 41.7297C59.1113 41.7297 58.6523 42.1887 58.6523 42.7551V48.3916V48.393V51.8502C54.5739 51.2687 51.4062 47.2708 51.4062 42.4375C51.4062 41.6858 51.484 40.9428 51.6354 40.2206C54.775 39.1691 56.5779 35.4889 56.8066 34.008C57.5021 33.7472 58.1559 33.4102 58.7599 33.0087C63.7392 32.3669 67.9492 36.8886 67.9492 42.4375C67.9492 47.2708 64.7816 51.2687 60.7031 51.8502V48.8171L63.9453 45.5749C64.3457 45.1743 64.3457 44.5252 63.9453 44.1247C63.5447 43.7244 62.8955 43.7244 62.4951 44.1247L60.7031 45.9167V42.7551C60.7031 42.1887 60.2442 41.7297 59.6777 41.7297Z" fill="black"/>
</svg>
