<svg width="50" height="50" viewBox="0 0 50 50" fill="none" xmlns="http://www.w3.org/2000/svg">
<g clip-path="url(#clip0)">
<path d="M24.9998 31.1555C28.4002 31.1555 31.1567 28.399 31.1567 24.9987C31.1567 21.5983 28.4002 18.8418 24.9998 18.8418C21.5995 18.8418 18.843 21.5983 18.843 24.9987C18.843 28.399 21.5995 31.1555 24.9998 31.1555Z" fill="black"/>
<path d="M49.6906 24.2187C49.2396 23.7416 38.5128 12.4963 24.9974 12.4963C11.4835 12.4963 0.758108 23.7416 0.308367 24.2187C-0.101813 24.6569 -0.101813 25.3401 0.308367 25.7762C0.759892 26.2533 11.4855 37.5036 24.9974 37.5036C38.5128 37.5036 49.2429 26.2533 49.6906 25.7762C50.1037 25.3401 50.1037 24.6533 49.6906 24.2187ZM25.0004 34.5167C19.7537 34.5167 15.4853 30.2474 15.4853 24.9966C15.4853 19.7499 19.7537 15.4782 25.0004 15.4782C30.2467 15.4782 34.5211 19.7484 34.5211 24.9966C34.5199 30.2444 30.2467 34.5167 25.0004 34.5167ZM17.4553 16.0113C14.8839 18.1752 13.211 21.3784 13.211 24.9966C13.211 28.6132 14.8839 31.8167 17.4553 33.9845C10.3404 31.6963 4.75312 26.8815 2.75606 24.9966C4.75342 23.1137 10.3419 18.2983 17.4553 16.0113ZM32.549 33.981C35.1186 31.8155 36.7936 28.6114 36.7936 24.9966C36.7936 21.3817 35.1201 18.18 32.5469 16.0145C39.6615 18.3028 45.2446 23.1116 47.2429 24.9966C45.2443 26.8797 39.6612 31.6894 32.549 33.981Z" fill="black"/>
</g>
<defs>
<clipPath id="clip0">
<rect width="50" height="50" fill="white"/>
</clipPath>
</defs>
</svg>
