<svg width="121" height="31" viewBox="0 0 121 31" fill="none" xmlns="http://www.w3.org/2000/svg">
<path d="M24.525 2.375C25.3083 2.375 25.95 2.35 26.45 2.3V2.8C25.4667 3.28333 24.6917 4.45 24.125 6.3L19.925 20C19.3917 19.9667 18.95 19.95 18.6 19.95C18.2667 19.95 17.8333 19.9667 17.3 20L14.05 10.075L10.525 20C9.99167 19.9667 9.55 19.95 9.2 19.95C8.86667 19.95 8.43333 19.9667 7.9 20L2.1 4.4C1.9 3.86667 1.66667 3.475 1.4 3.225C1.13333 2.95833 0.875 2.81667 0.625 2.8V2.3C1.825 2.35 3.3 2.375 5.05 2.375C6.56667 2.375 7.675 2.35 8.375 2.3V2.8C7.925 2.88333 7.7 3.21667 7.7 3.8C7.7 4.15 7.775 4.51667 7.925 4.9L11.55 15.1L13.75 9.15L12.05 3.975C11.9167 3.55833 11.75 3.26667 11.55 3.1C11.35 2.93333 11.0917 2.83333 10.775 2.8V2.3C11.8917 2.35 13.3333 2.375 15.1 2.375C16.8333 2.375 18.125 2.35 18.975 2.3V2.8C18.375 2.81667 17.9417 2.89167 17.675 3.025C17.4083 3.15833 17.275 3.4 17.275 3.75C17.275 4.06667 17.3583 4.45 17.525 4.9L20.825 14.925L22.75 8.75C23.2 7.26667 23.425 6.1 23.425 5.25C23.425 4.41667 23.2333 3.80833 22.85 3.425C22.4833 3.04167 21.95 2.83333 21.25 2.8V2.3C22.5 2.35 23.5917 2.375 24.525 2.375ZM31.6863 6.675C33.7363 6.675 35.3197 7.21667 36.4363 8.3C37.553 9.36667 38.1113 11.1083 38.1113 13.525C38.1113 15.9417 37.553 17.6833 36.4363 18.75C35.3197 19.8167 33.7363 20.35 31.6863 20.35C29.6363 20.35 28.053 19.8167 26.9363 18.75C25.8197 17.6833 25.2613 15.9417 25.2613 13.525C25.2613 11.1083 25.8197 9.36667 26.9363 8.3C28.053 7.21667 29.6363 6.675 31.6863 6.675ZM31.6863 7.175C31.153 7.175 30.728 7.7 30.4113 8.75C30.0947 9.8 29.9363 11.3917 29.9363 13.525C29.9363 15.6583 30.0947 17.25 30.4113 18.3C30.728 19.3333 31.153 19.85 31.6863 19.85C32.2197 19.85 32.6447 19.3333 32.9613 18.3C33.278 17.25 33.4363 15.6583 33.4363 13.525C33.4363 11.3917 33.278 9.8 32.9613 8.75C32.6447 7.7 32.2197 7.175 31.6863 7.175ZM46.0906 6.675C48.1406 6.675 49.724 7.21667 50.8406 8.3C51.9573 9.36667 52.5156 11.1083 52.5156 13.525C52.5156 15.9417 51.9573 17.6833 50.8406 18.75C49.724 19.8167 48.1406 20.35 46.0906 20.35C44.0406 20.35 42.4573 19.8167 41.3406 18.75C40.224 17.6833 39.6656 15.9417 39.6656 13.525C39.6656 11.1083 40.224 9.36667 41.3406 8.3C42.4573 7.21667 44.0406 6.675 46.0906 6.675ZM46.0906 7.175C45.5573 7.175 45.1323 7.7 44.8156 8.75C44.499 9.8 44.3406 11.3917 44.3406 13.525C44.3406 15.6583 44.499 17.25 44.8156 18.3C45.1323 19.3333 45.5573 19.85 46.0906 19.85C46.624 19.85 47.049 19.3333 47.3656 18.3C47.6823 17.25 47.8406 15.6583 47.8406 13.525C47.8406 11.3917 47.6823 9.8 47.3656 8.75C47.049 7.7 46.624 7.175 46.0906 7.175ZM66.7199 17.25C66.7199 18.0167 66.8199 18.575 67.0199 18.925C67.2366 19.275 67.6033 19.45 68.1199 19.45V19.975C67.6033 19.925 67.0866 19.9 66.5699 19.9C64.8366 19.9 63.3866 20.0167 62.2199 20.25V18.475C61.8699 19.125 61.4533 19.6 60.9699 19.9C60.5033 20.2 59.9033 20.35 59.1699 20.35C57.6366 20.35 56.4033 19.7833 55.4699 18.65C54.5366 17.5 54.0699 15.7583 54.0699 13.425C54.0699 11.2083 54.5616 9.53333 55.5449 8.4C56.5449 7.25 57.9033 6.675 59.6199 6.675C60.6866 6.675 61.5533 6.88333 62.2199 7.3V3.45C62.2199 2.68333 62.1116 2.125 61.8949 1.775C61.6949 1.425 61.3366 1.25 60.8199 1.25V0.724999C61.3366 0.775 61.8533 0.8 62.3699 0.8C64.1033 0.8 65.5533 0.683333 66.7199 0.449998V17.25ZM60.4199 19.05C60.9033 19.05 61.3199 18.8833 61.6699 18.55C62.0366 18.2 62.2199 17.7667 62.2199 17.25V7.825C61.8533 7.60833 61.4616 7.5 61.0449 7.5C60.2616 7.5 59.6783 8 59.2949 9C58.9283 9.98333 58.7449 11.4833 58.7449 13.5C58.7449 15.55 58.8949 16.9917 59.1949 17.825C59.4949 18.6417 59.9033 19.05 60.4199 19.05ZM88.4543 17.675C88.4543 18.3583 88.596 18.8333 88.8793 19.1C89.1626 19.35 89.6543 19.475 90.3543 19.475V20C88.821 19.9333 87.821 19.9 87.3543 19.9C86.8876 19.9 85.9543 19.9333 84.5543 20V19.475C85.171 19.475 85.596 19.35 85.8293 19.1C86.0793 18.8333 86.2043 18.3583 86.2043 17.675V10.45C86.2043 9.81667 86.1626 9.30833 86.0793 8.925C86.0126 8.525 85.8376 8.2 85.5543 7.95C85.2876 7.7 84.871 7.575 84.3043 7.575C83.671 7.575 83.096 7.775 82.5793 8.175C82.0626 8.575 81.6543 9.125 81.3543 9.825C81.071 10.5083 80.9293 11.2667 80.9293 12.1V17.675C80.9293 18.3583 81.071 18.8333 81.3543 19.1C81.6376 19.35 82.1293 19.475 82.8293 19.475V20C81.296 19.9333 80.296 19.9 79.8293 19.9C79.3626 19.9 78.4293 19.9333 77.0293 20V19.475C77.646 19.475 78.071 19.35 78.3043 19.1C78.5543 18.8333 78.6793 18.3583 78.6793 17.675V10.45C78.6793 9.81667 78.6376 9.30833 78.5543 8.925C78.4876 8.525 78.3126 8.2 78.0293 7.95C77.7626 7.7 77.346 7.575 76.7793 7.575C76.146 7.575 75.571 7.775 75.0543 8.175C74.5376 8.575 74.1293 9.125 73.8293 9.825C73.546 10.525 73.4043 11.2917 73.4043 12.125V17.675C73.4043 18.3583 73.521 18.8333 73.7543 19.1C74.0043 19.35 74.4376 19.475 75.0543 19.475V20C73.6543 19.9333 72.721 19.9 72.2543 19.9C71.7876 19.9 70.7876 19.9333 69.2543 20V19.475C69.9543 19.475 70.446 19.35 70.7293 19.1C71.0126 18.8333 71.1543 18.3583 71.1543 17.675V9.85C71.1543 9.08333 71.0126 8.525 70.7293 8.175C70.446 7.825 69.9543 7.65 69.2543 7.65V7.125C69.7876 7.175 70.3043 7.2 70.8043 7.2C71.8543 7.2 72.721 7.08333 73.4043 6.85V9.8C73.8043 8.76667 74.371 8.00833 75.1043 7.525C75.8376 7.025 76.6376 6.775 77.5043 6.775C78.6376 6.775 79.5043 7.09167 80.1043 7.725C80.521 8.15833 80.7793 8.825 80.8793 9.725C81.296 8.675 81.871 7.925 82.6043 7.475C83.3376 7.00833 84.146 6.775 85.0293 6.775C86.1626 6.775 87.0293 7.09167 87.6293 7.725C87.9293 8.05833 88.1376 8.48333 88.2543 9C88.3876 9.51667 88.4543 10.1833 88.4543 11V17.675ZM94.7967 20.175C93.7467 20.175 92.9633 19.9167 92.4467 19.4C91.9467 18.8667 91.6967 18.1333 91.6967 17.2C91.6967 16.45 91.8967 15.8333 92.2967 15.35C92.7133 14.8667 93.1967 14.4833 93.7467 14.2C94.3133 13.9167 95.055 13.6167 95.9717 13.3C96.905 12.9833 97.5967 12.6917 98.0467 12.425C98.4967 12.1583 98.7217 11.8 98.7217 11.35V9.8C98.7217 8.83333 98.5133 8.175 98.0967 7.825C97.6967 7.45833 97.13 7.275 96.3967 7.275C95.23 7.275 94.405 7.575 93.9217 8.175C94.255 8.25833 94.53 8.43333 94.7467 8.7C94.98 8.96667 95.0967 9.3 95.0967 9.7C95.0967 10.1167 94.9633 10.45 94.6967 10.7C94.43 10.9333 94.0883 11.05 93.6717 11.05C93.205 11.05 92.855 10.9083 92.6217 10.625C92.3883 10.325 92.2717 9.96667 92.2717 9.55C92.2717 9.15 92.3633 8.81667 92.5467 8.55C92.7467 8.28333 93.0383 8.01667 93.4217 7.75C93.8217 7.46667 94.33 7.23333 94.9467 7.05C95.5633 6.86667 96.2383 6.775 96.9717 6.775C98.2717 6.775 99.255 7.08333 99.9217 7.7C100.338 8.08333 100.613 8.55 100.747 9.1C100.897 9.63333 100.972 10.3417 100.972 11.225V18.175C100.972 18.5917 101.03 18.8917 101.147 19.075C101.263 19.2583 101.463 19.35 101.747 19.35C101.947 19.35 102.13 19.3083 102.297 19.225C102.48 19.125 102.672 18.9917 102.872 18.825L103.147 19.25C102.713 19.5833 102.338 19.825 102.022 19.975C101.722 20.1083 101.338 20.175 100.872 20.175C100.072 20.175 99.5133 19.975 99.1967 19.575C98.88 19.175 98.7217 18.6333 98.7217 17.95C98.2217 18.7833 97.6467 19.3667 96.9967 19.7C96.3467 20.0167 95.6133 20.175 94.7967 20.175ZM95.8967 19.175C96.9967 19.175 97.9383 18.5417 98.7217 17.275V12.375C98.5717 12.6083 98.3633 12.8 98.0967 12.95C97.83 13.1 97.4217 13.3 96.8717 13.55C96.2383 13.8167 95.7217 14.075 95.3217 14.325C94.9383 14.5583 94.605 14.8833 94.3217 15.3C94.0383 15.7167 93.8967 16.25 93.8967 16.9C93.8967 17.65 94.08 18.2167 94.4467 18.6C94.8133 18.9833 95.2967 19.175 95.8967 19.175ZM112.298 6.775C113.465 6.775 114.348 7.09167 114.948 7.725C115.265 8.05833 115.49 8.475 115.623 8.975C115.756 9.475 115.823 10.15 115.823 11V17.675C115.823 18.3583 115.965 18.8333 116.248 19.1C116.531 19.35 117.023 19.475 117.723 19.475V20C116.19 19.9333 115.19 19.9 114.723 19.9C114.256 19.9 113.323 19.9333 111.923 20V19.475C112.54 19.475 112.965 19.35 113.198 19.1C113.448 18.8333 113.573 18.3583 113.573 17.675V10.45C113.573 9.51667 113.44 8.80833 113.173 8.325C112.906 7.825 112.365 7.575 111.548 7.575C110.865 7.575 110.256 7.775 109.723 8.175C109.19 8.575 108.773 9.125 108.473 9.825C108.19 10.5083 108.048 11.275 108.048 12.125V17.675C108.048 18.3583 108.165 18.8333 108.398 19.1C108.648 19.35 109.081 19.475 109.698 19.475V20C108.298 19.9333 107.365 19.9 106.898 19.9C106.431 19.9 105.431 19.9333 103.898 20V19.475C104.598 19.475 105.09 19.35 105.373 19.1C105.656 18.8333 105.798 18.3583 105.798 17.675V9.85C105.798 9.08333 105.656 8.525 105.373 8.175C105.09 7.825 104.598 7.65 103.898 7.65V7.125C104.431 7.175 104.948 7.2 105.448 7.2C106.498 7.2 107.365 7.08333 108.048 6.85V9.8C108.465 8.73333 109.04 7.96667 109.773 7.5C110.523 7.01667 111.365 6.775 112.298 6.775Z" fill="white"/>
<path d="M24.176 28.232C24.1227 28.104 24.0507 27.9413 23.96 27.744C23.8747 27.5467 23.7813 27.3333 23.68 27.104C23.5787 26.8747 23.4693 26.64 23.352 26.4C23.24 26.1547 23.1333 25.9253 23.032 25.712C22.9307 25.4933 22.8347 25.2987 22.744 25.128C22.6587 24.9573 22.5893 24.8267 22.536 24.736C22.4773 25.3653 22.4293 26.048 22.392 26.784C22.3547 27.5147 22.3227 28.2533 22.296 29H21.536C21.5573 28.52 21.5813 28.0373 21.608 27.552C21.6347 27.0613 21.664 26.5813 21.696 26.112C21.7333 25.6373 21.7707 25.176 21.808 24.728C21.8507 24.28 21.896 23.856 21.944 23.456H22.624C22.768 23.6907 22.9227 23.968 23.088 24.288C23.2533 24.608 23.4187 24.944 23.584 25.296C23.7493 25.6427 23.9093 25.992 24.064 26.344C24.2187 26.6907 24.36 27.008 24.488 27.296C24.616 27.008 24.7573 26.6907 24.912 26.344C25.0667 25.992 25.2267 25.6427 25.392 25.296C25.5573 24.944 25.7227 24.608 25.888 24.288C26.0533 23.968 26.208 23.6907 26.352 23.456H27.032C27.2133 25.2427 27.3493 27.0907 27.44 29H26.68C26.6533 28.2533 26.6213 27.5147 26.584 26.784C26.5467 26.048 26.4987 25.3653 26.44 24.736C26.3867 24.8267 26.3147 24.9573 26.224 25.128C26.1387 25.2987 26.0453 25.4933 25.944 25.712C25.8427 25.9253 25.7333 26.1547 25.616 26.4C25.504 26.64 25.3973 26.8747 25.296 27.104C25.1947 27.3333 25.0987 27.5467 25.008 27.744C24.9227 27.9413 24.8533 28.104 24.8 28.232H24.176ZM29.5767 26.928C29.5767 26.56 29.6301 26.24 29.7367 25.968C29.8434 25.6907 29.9847 25.4613 30.1607 25.28C30.3367 25.0987 30.5394 24.9627 30.7687 24.872C30.9981 24.7813 31.2327 24.736 31.4727 24.736C32.0327 24.736 32.4621 24.912 32.7608 25.264C33.0594 25.6107 33.2087 26.1413 33.2087 26.856C33.2087 26.888 33.2087 26.9307 33.2087 26.984C33.2087 27.032 33.2061 27.0773 33.2007 27.12H30.3527C30.3847 27.552 30.5101 27.88 30.7287 28.104C30.9474 28.328 31.2887 28.44 31.7527 28.44C32.0141 28.44 32.2327 28.4187 32.4088 28.376C32.5901 28.328 32.7261 28.2827 32.8168 28.24L32.9207 28.864C32.8301 28.912 32.6701 28.9627 32.4407 29.016C32.2167 29.0693 31.9607 29.096 31.6727 29.096C31.3101 29.096 30.9954 29.0427 30.7287 28.936C30.4674 28.824 30.2514 28.672 30.0807 28.48C29.9101 28.288 29.7821 28.0613 29.6967 27.8C29.6167 27.5333 29.5767 27.2427 29.5767 26.928ZM32.4327 26.52C32.4381 26.184 32.3527 25.9093 32.1767 25.696C32.0061 25.4773 31.7687 25.368 31.4647 25.368C31.2941 25.368 31.1421 25.4027 31.0087 25.472C30.8807 25.536 30.7714 25.6213 30.6807 25.728C30.5901 25.8347 30.5181 25.9573 30.4647 26.096C30.4167 26.2347 30.3847 26.376 30.3687 26.52H32.4327ZM36.1495 25.32C36.3148 25.1867 36.5068 25.0853 36.7255 25.016C36.9495 24.9413 37.1628 24.904 37.3655 24.904C37.9628 24.904 38.4135 25.088 38.7175 25.456C39.0268 25.8187 39.1815 26.3253 39.1815 26.976C39.1815 27.2533 39.1442 27.52 39.0695 27.776C38.9948 28.032 38.8775 28.2587 38.7175 28.456C38.5628 28.6533 38.3655 28.8107 38.1255 28.928C37.8855 29.0453 37.6002 29.104 37.2695 29.104C36.8908 29.104 36.5762 29.0347 36.3255 28.896C36.0748 28.7573 35.8748 28.568 35.7255 28.328C35.5815 28.088 35.4802 27.808 35.4215 27.488C35.3628 27.168 35.3335 26.8293 35.3335 26.472C35.3335 26.008 35.3655 25.576 35.4295 25.176C35.4988 24.776 35.6215 24.424 35.7975 24.12C35.9735 23.816 36.2162 23.5653 36.5255 23.368C36.8402 23.1653 37.2428 23.0293 37.7335 22.96C37.8775 22.9387 38.0028 22.9227 38.1095 22.912C38.2215 22.896 38.3175 22.8827 38.3975 22.872C38.4828 22.8613 38.5602 22.8507 38.6295 22.84C38.6988 22.824 38.7708 22.808 38.8455 22.792L38.9255 23.464C38.8882 23.4747 38.8482 23.4827 38.8055 23.488C38.7682 23.4933 38.7122 23.5013 38.6375 23.512C38.5682 23.5227 38.4722 23.536 38.3495 23.552C38.2322 23.568 38.0775 23.5867 37.8855 23.608C37.3575 23.6667 36.9522 23.8267 36.6695 24.088C36.3868 24.3493 36.2135 24.76 36.1495 25.32ZM36.1015 26.592C36.1015 26.8427 36.1175 27.08 36.1495 27.304C36.1868 27.528 36.2482 27.7253 36.3335 27.896C36.4242 28.0667 36.5442 28.2027 36.6935 28.304C36.8428 28.4 37.0348 28.448 37.2695 28.448C37.4722 28.448 37.6455 28.4107 37.7895 28.336C37.9335 28.256 38.0508 28.1493 38.1415 28.016C38.2322 27.8827 38.2988 27.728 38.3415 27.552C38.3842 27.3707 38.4055 27.1787 38.4055 26.976C38.4055 26.7947 38.3868 26.6187 38.3495 26.448C38.3175 26.2773 38.2562 26.1253 38.1655 25.992C38.0748 25.8587 37.9522 25.752 37.7975 25.672C37.6482 25.592 37.4588 25.552 37.2295 25.552C37.0055 25.552 36.7895 25.6 36.5815 25.696C36.3788 25.792 36.2215 25.9093 36.1095 26.048C36.1042 26.1067 36.1015 26.1893 36.1015 26.296C36.1015 26.4027 36.1015 26.5013 36.1015 26.592ZM41.2033 26.928C41.2033 26.56 41.2566 26.24 41.3633 25.968C41.47 25.6907 41.6113 25.4613 41.7873 25.28C41.9633 25.0987 42.166 24.9627 42.3953 24.872C42.6246 24.7813 42.8593 24.736 43.0993 24.736C43.6593 24.736 44.0886 24.912 44.3873 25.264C44.686 25.6107 44.8353 26.1413 44.8353 26.856C44.8353 26.888 44.8353 26.9307 44.8353 26.984C44.8353 27.032 44.8326 27.0773 44.8273 27.12H41.9793C42.0113 27.552 42.1366 27.88 42.3553 28.104C42.574 28.328 42.9153 28.44 43.3793 28.44C43.6406 28.44 43.8593 28.4187 44.0353 28.376C44.2166 28.328 44.3526 28.2827 44.4433 28.24L44.5473 28.864C44.4566 28.912 44.2966 28.9627 44.0673 29.016C43.8433 29.0693 43.5873 29.096 43.2993 29.096C42.9366 29.096 42.622 29.0427 42.3553 28.936C42.094 28.824 41.878 28.672 41.7073 28.48C41.5366 28.288 41.4086 28.0613 41.3233 27.8C41.2433 27.5333 41.2033 27.2427 41.2033 26.928ZM44.0593 26.52C44.0646 26.184 43.9793 25.9093 43.8033 25.696C43.6326 25.4773 43.3953 25.368 43.0913 25.368C42.9206 25.368 42.7686 25.4027 42.6353 25.472C42.5073 25.536 42.398 25.6213 42.3073 25.728C42.2166 25.8347 42.1446 25.9573 42.0913 26.096C42.0433 26.2347 42.0113 26.376 41.9953 26.52H44.0593ZM48.5521 25.464C48.5521 25.64 48.5467 25.8293 48.5361 26.032C48.5307 26.2293 48.5174 26.4293 48.4961 26.632C48.4747 26.8293 48.4454 27.0267 48.4081 27.224C48.3707 27.416 48.3227 27.5973 48.2641 27.768C48.2054 27.9387 48.1307 28.0987 48.0401 28.248C47.9547 28.3973 47.8481 28.5307 47.7201 28.648C47.5921 28.76 47.4427 28.856 47.2721 28.936C47.1014 29.0107 46.9014 29.0587 46.6721 29.08L46.5681 28.456C46.8294 28.4027 47.0347 28.304 47.1841 28.16C47.3387 28.016 47.4614 27.84 47.5521 27.632C47.6321 27.4507 47.6907 27.2453 47.7281 27.016C47.7654 26.7867 47.7921 26.5493 47.8081 26.304C47.8241 26.0533 47.8321 25.8027 47.8321 25.552C47.8374 25.3013 47.8401 25.064 47.8401 24.84H50.6081V29H49.8641V25.464H48.5521ZM54.6613 28.48C54.976 28.48 55.224 28.4187 55.4053 28.296C55.5866 28.1733 55.6773 27.976 55.6773 27.704C55.6773 27.5707 55.6506 27.456 55.5973 27.36C55.544 27.264 55.4693 27.1867 55.3733 27.128C55.2826 27.064 55.176 27.0187 55.0533 26.992C54.9306 26.96 54.8 26.944 54.6613 26.944C54.5173 26.944 54.368 26.9493 54.2133 26.96C54.064 26.9653 53.936 26.9813 53.8293 27.008V28.44C53.8613 28.4453 53.9093 28.4507 53.9733 28.456C54.0373 28.4613 54.1066 28.4667 54.1813 28.472C54.2613 28.472 54.3413 28.4747 54.4213 28.48C54.5066 28.48 54.5866 28.48 54.6613 28.48ZM53.0853 28.912V24.84H53.8293V26.432C53.872 26.4213 53.928 26.4107 53.9973 26.4C54.072 26.3893 54.1493 26.3787 54.2293 26.368C54.3146 26.3573 54.4026 26.3493 54.4933 26.344C54.584 26.3387 54.6693 26.336 54.7493 26.336C54.9786 26.336 55.1946 26.3627 55.3973 26.416C55.6 26.464 55.776 26.544 55.9253 26.656C56.08 26.7627 56.2026 26.904 56.2933 27.08C56.384 27.2507 56.4293 27.456 56.4293 27.696C56.4293 27.9467 56.3866 28.16 56.3013 28.336C56.216 28.512 56.0933 28.656 55.9333 28.768C55.7733 28.88 55.5813 28.96 55.3573 29.008C55.1386 29.0613 54.8933 29.088 54.6213 29.088C54.3546 29.088 54.0933 29.072 53.8373 29.04C53.5813 29.0133 53.3306 28.9707 53.0853 28.912ZM61.9199 29H61.1759V27.16H59.2559V29H58.5119V24.84H59.2559V26.536H61.1759V24.84H61.9199V29ZM65.8074 28.464C65.9834 28.464 66.138 28.4613 66.2714 28.456C66.41 28.4453 66.5247 28.4293 66.6154 28.408V27.168C66.562 27.1413 66.474 27.12 66.3514 27.104C66.234 27.0827 66.09 27.072 65.9194 27.072C65.8074 27.072 65.6874 27.08 65.5594 27.096C65.4367 27.112 65.322 27.1467 65.2154 27.2C65.114 27.248 65.0287 27.3173 64.9594 27.408C64.89 27.4933 64.8554 27.608 64.8554 27.752C64.8554 28.0187 64.9407 28.2053 65.1114 28.312C65.282 28.4133 65.514 28.464 65.8074 28.464ZM65.7434 24.736C66.042 24.736 66.2927 24.776 66.4954 24.856C66.7034 24.9307 66.8687 25.04 66.9914 25.184C67.1194 25.3227 67.21 25.4907 67.2634 25.688C67.3167 25.88 67.3434 26.0933 67.3434 26.328V28.928C67.2794 28.9387 67.1887 28.9547 67.0714 28.976C66.9594 28.992 66.8314 29.008 66.6874 29.024C66.5434 29.04 66.386 29.0533 66.2154 29.064C66.05 29.08 65.8847 29.088 65.7194 29.088C65.4847 29.088 65.2687 29.064 65.0714 29.016C64.874 28.968 64.7034 28.8933 64.5594 28.792C64.4154 28.6853 64.3034 28.5467 64.2234 28.376C64.1434 28.2053 64.1034 28 64.1034 27.76C64.1034 27.5307 64.1487 27.3333 64.2394 27.168C64.3354 27.0027 64.4634 26.8693 64.6234 26.768C64.7834 26.6667 64.97 26.592 65.1834 26.544C65.3967 26.496 65.6207 26.472 65.8554 26.472C65.93 26.472 66.0074 26.4773 66.0874 26.488C66.1674 26.4933 66.242 26.504 66.3114 26.52C66.386 26.5307 66.45 26.5413 66.5034 26.552C66.5567 26.5627 66.594 26.5707 66.6154 26.576V26.368C66.6154 26.2453 66.602 26.1253 66.5754 26.008C66.5487 25.8853 66.5007 25.7787 66.4314 25.688C66.362 25.592 66.266 25.5173 66.1434 25.464C66.026 25.4053 65.8714 25.376 65.6794 25.376C65.434 25.376 65.218 25.3947 65.0314 25.432C64.85 25.464 64.714 25.4987 64.6234 25.536L64.5354 24.92C64.6314 24.8773 64.7914 24.8373 65.0154 24.8C65.2394 24.7573 65.482 24.736 65.7434 24.736ZM71.4991 27.384C71.4191 27.384 71.3417 27.384 71.2671 27.384C71.1924 27.3787 71.1204 27.3733 71.0511 27.368C70.8804 27.624 70.7151 27.8987 70.5551 28.192C70.4004 28.48 70.2617 28.7493 70.1391 29H69.3871C69.4511 28.8453 69.5257 28.688 69.6111 28.528C69.6964 28.3627 69.7817 28.2027 69.8671 28.048C69.9577 27.8933 70.0484 27.7467 70.1391 27.608C70.2297 27.4693 70.3151 27.344 70.3951 27.232C70.2457 27.1787 70.1231 27.1147 70.0271 27.04C69.9311 26.96 69.8537 26.872 69.7951 26.776C69.7364 26.68 69.6937 26.5787 69.6671 26.472C69.6457 26.36 69.6351 26.248 69.6351 26.136C69.6351 25.9013 69.6777 25.696 69.7631 25.52C69.8537 25.344 69.9764 25.2 70.1311 25.088C70.2857 24.9707 70.4671 24.8827 70.6751 24.824C70.8884 24.7653 71.1204 24.736 71.3711 24.736C71.7231 24.736 72.0217 24.752 72.2671 24.784C72.5124 24.816 72.7177 24.8533 72.8831 24.896V29H72.1471V27.384H71.4991ZM72.1471 25.392C72.0884 25.3813 71.9897 25.3707 71.8511 25.36C71.7177 25.3493 71.5631 25.344 71.3871 25.344C71.0831 25.344 70.8377 25.408 70.6511 25.536C70.4644 25.6587 70.3711 25.856 70.3711 26.128C70.3711 26.3947 70.4671 26.5787 70.6591 26.68C70.8511 26.7813 71.0991 26.832 71.4031 26.832H72.1471V25.392ZM78.9334 26.92C78.9334 27.1547 78.9708 27.3627 79.0454 27.544C79.1254 27.7253 79.2348 27.88 79.3734 28.008C79.5121 28.1307 79.6748 28.2267 79.8614 28.296C80.0534 28.36 80.2588 28.3947 80.4774 28.4V25.44C80.2588 25.4453 80.0534 25.4827 79.8614 25.552C79.6748 25.6213 79.5121 25.72 79.3734 25.848C79.2348 25.9707 79.1254 26.1227 79.0454 26.304C78.9708 26.4853 78.9334 26.6907 78.9334 26.92ZM81.1974 28.4C81.4161 28.3947 81.6188 28.36 81.8054 28.296C81.9974 28.2267 82.1628 28.1307 82.3014 28.008C82.4401 27.88 82.5468 27.7253 82.6214 27.544C82.7014 27.3627 82.7414 27.1547 82.7414 26.92C82.7414 26.6907 82.7014 26.4853 82.6214 26.304C82.5468 26.1227 82.4401 25.9707 82.3014 25.848C82.1628 25.72 81.9974 25.6213 81.8054 25.552C81.6188 25.4827 81.4161 25.4453 81.1974 25.44V28.4ZM81.1974 30.48H80.4774V29.024C80.1628 29.0187 79.8668 28.968 79.5894 28.872C79.3121 28.776 79.0668 28.64 78.8534 28.464C78.6454 28.2827 78.4801 28.064 78.3574 27.808C78.2348 27.5467 78.1734 27.2507 78.1734 26.92C78.1734 26.5893 78.2348 26.296 78.3574 26.04C78.4801 25.7787 78.6454 25.56 78.8534 25.384C79.0668 25.2027 79.3121 25.064 79.5894 24.968C79.8668 24.872 80.1628 24.8213 80.4774 24.816V22.92L81.1974 22.792V24.816C81.5068 24.8213 81.8001 24.872 82.0774 24.968C82.3601 25.064 82.6054 25.2027 82.8134 25.384C83.0268 25.56 83.1948 25.7787 83.3174 26.04C83.4401 26.296 83.5014 26.5893 83.5014 26.92C83.5014 27.2507 83.4401 27.5467 83.3174 27.808C83.1948 28.064 83.0268 28.2827 82.8134 28.464C82.6054 28.64 82.3601 28.776 82.0774 28.872C81.8001 28.968 81.5068 29.0187 81.1974 29.024V30.48ZM87.1464 28.464C87.3224 28.464 87.4771 28.4613 87.6104 28.456C87.7491 28.4453 87.8638 28.4293 87.9544 28.408V27.168C87.9011 27.1413 87.8131 27.12 87.6904 27.104C87.5731 27.0827 87.4291 27.072 87.2584 27.072C87.1464 27.072 87.0264 27.08 86.8984 27.096C86.7758 27.112 86.6611 27.1467 86.5544 27.2C86.4531 27.248 86.3678 27.3173 86.2984 27.408C86.2291 27.4933 86.1944 27.608 86.1944 27.752C86.1944 28.0187 86.2798 28.2053 86.4504 28.312C86.6211 28.4133 86.8531 28.464 87.1464 28.464ZM87.0824 24.736C87.3811 24.736 87.6318 24.776 87.8344 24.856C88.0424 24.9307 88.2078 25.04 88.3304 25.184C88.4584 25.3227 88.5491 25.4907 88.6024 25.688C88.6558 25.88 88.6824 26.0933 88.6824 26.328V28.928C88.6184 28.9387 88.5278 28.9547 88.4104 28.976C88.2984 28.992 88.1704 29.008 88.0264 29.024C87.8824 29.04 87.7251 29.0533 87.5544 29.064C87.3891 29.08 87.2238 29.088 87.0584 29.088C86.8238 29.088 86.6078 29.064 86.4104 29.016C86.2131 28.968 86.0424 28.8933 85.8984 28.792C85.7544 28.6853 85.6424 28.5467 85.5624 28.376C85.4824 28.2053 85.4424 28 85.4424 27.76C85.4424 27.5307 85.4878 27.3333 85.5784 27.168C85.6744 27.0027 85.8024 26.8693 85.9624 26.768C86.1224 26.6667 86.3091 26.592 86.5224 26.544C86.7358 26.496 86.9598 26.472 87.1944 26.472C87.2691 26.472 87.3464 26.4773 87.4264 26.488C87.5064 26.4933 87.5811 26.504 87.6504 26.52C87.7251 26.5307 87.7891 26.5413 87.8424 26.552C87.8958 26.5627 87.9331 26.5707 87.9544 26.576V26.368C87.9544 26.2453 87.9411 26.1253 87.9144 26.008C87.8878 25.8853 87.8398 25.7787 87.7704 25.688C87.7011 25.592 87.6051 25.5173 87.4824 25.464C87.3651 25.4053 87.2104 25.376 87.0184 25.376C86.7731 25.376 86.5571 25.3947 86.3704 25.432C86.1891 25.464 86.0531 25.4987 85.9624 25.536L85.8744 24.92C85.9704 24.8773 86.1304 24.8373 86.3544 24.8C86.5784 24.7573 86.8211 24.736 87.0824 24.736ZM91.7901 25.32C91.9555 25.1867 92.1475 25.0853 92.3661 25.016C92.5901 24.9413 92.8035 24.904 93.0061 24.904C93.6035 24.904 94.0541 25.088 94.3581 25.456C94.6675 25.8187 94.8221 26.3253 94.8221 26.976C94.8221 27.2533 94.7848 27.52 94.7101 27.776C94.6355 28.032 94.5181 28.2587 94.3581 28.456C94.2035 28.6533 94.0061 28.8107 93.7661 28.928C93.5261 29.0453 93.2408 29.104 92.9101 29.104C92.5315 29.104 92.2168 29.0347 91.9661 28.896C91.7155 28.7573 91.5155 28.568 91.3661 28.328C91.2221 28.088 91.1208 27.808 91.0621 27.488C91.0035 27.168 90.9741 26.8293 90.9741 26.472C90.9741 26.008 91.0061 25.576 91.0701 25.176C91.1395 24.776 91.2621 24.424 91.4381 24.12C91.6141 23.816 91.8568 23.5653 92.1661 23.368C92.4808 23.1653 92.8835 23.0293 93.3741 22.96C93.5181 22.9387 93.6435 22.9227 93.7501 22.912C93.8621 22.896 93.9581 22.8827 94.0381 22.872C94.1235 22.8613 94.2008 22.8507 94.2701 22.84C94.3395 22.824 94.4115 22.808 94.4861 22.792L94.5661 23.464C94.5288 23.4747 94.4888 23.4827 94.4461 23.488C94.4088 23.4933 94.3528 23.5013 94.2781 23.512C94.2088 23.5227 94.1128 23.536 93.9901 23.552C93.8728 23.568 93.7181 23.5867 93.5261 23.608C92.9981 23.6667 92.5928 23.8267 92.3101 24.088C92.0275 24.3493 91.8541 24.76 91.7901 25.32ZM91.7421 26.592C91.7421 26.8427 91.7581 27.08 91.7901 27.304C91.8275 27.528 91.8888 27.7253 91.9741 27.896C92.0648 28.0667 92.1848 28.2027 92.3341 28.304C92.4835 28.4 92.6755 28.448 92.9101 28.448C93.1128 28.448 93.2861 28.4107 93.4301 28.336C93.5741 28.256 93.6915 28.1493 93.7821 28.016C93.8728 27.8827 93.9395 27.728 93.9821 27.552C94.0248 27.3707 94.0461 27.1787 94.0461 26.976C94.0461 26.7947 94.0275 26.6187 93.9901 26.448C93.9581 26.2773 93.8968 26.1253 93.8061 25.992C93.7155 25.8587 93.5928 25.752 93.4381 25.672C93.2888 25.592 93.0995 25.552 92.8701 25.552C92.6461 25.552 92.4301 25.6 92.2221 25.696C92.0195 25.792 91.8621 25.9093 91.7501 26.048C91.7448 26.1067 91.7421 26.1893 91.7421 26.296C91.7421 26.4027 91.7421 26.5013 91.7421 26.592ZM99.9639 26.928C99.9639 26.4427 99.8439 26.0693 99.6039 25.808C99.3639 25.5467 99.0439 25.416 98.6439 25.416C98.4199 25.416 98.2439 25.424 98.1159 25.44C97.9933 25.456 97.8946 25.4747 97.8199 25.496V28.12C97.9106 28.1947 98.0413 28.2667 98.2119 28.336C98.3826 28.4053 98.5693 28.44 98.7719 28.44C98.9853 28.44 99.1666 28.4027 99.3159 28.328C99.4706 28.248 99.5959 28.1413 99.6919 28.008C99.7879 27.8693 99.8573 27.7093 99.8999 27.528C99.9426 27.3413 99.9639 27.1413 99.9639 26.928ZM100.74 26.928C100.74 27.2427 100.697 27.5333 100.612 27.8C100.532 28.0667 100.412 28.296 100.252 28.488C100.092 28.68 99.8946 28.8293 99.6599 28.936C99.4306 29.0427 99.1666 29.096 98.8679 29.096C98.6279 29.096 98.4146 29.064 98.2279 29C98.0466 28.936 97.9106 28.8747 97.8199 28.816V30.48H97.0759V24.968C97.2519 24.9253 97.4706 24.88 97.7319 24.832C97.9986 24.7787 98.3053 24.752 98.6519 24.752C98.9719 24.752 99.2599 24.8027 99.5159 24.904C99.7719 25.0053 99.9906 25.1493 100.172 25.336C100.353 25.5227 100.492 25.752 100.588 26.024C100.689 26.2907 100.74 26.592 100.74 26.928ZM106.483 24.84V29H105.763V25.832C105.603 26.0347 105.427 26.272 105.235 26.544C105.043 26.816 104.851 27.0987 104.659 27.392C104.467 27.68 104.283 27.9653 104.107 28.248C103.931 28.5307 103.779 28.7813 103.651 29H102.987V24.84H103.707V27.832C103.846 27.6027 104.003 27.352 104.179 27.08C104.355 26.8027 104.536 26.5307 104.723 26.264C104.915 25.992 105.104 25.7333 105.291 25.488C105.483 25.2373 105.662 25.0213 105.827 24.84H106.483ZM110.48 26.736C110.646 26.8533 110.824 27.0027 111.016 27.184C111.208 27.36 111.395 27.552 111.576 27.76C111.763 27.968 111.936 28.1813 112.096 28.4C112.256 28.6133 112.392 28.8133 112.504 29H111.624C111.507 28.8187 111.368 28.6347 111.208 28.448C111.054 28.256 110.891 28.072 110.72 27.896C110.55 27.72 110.376 27.5573 110.2 27.408C110.024 27.2587 109.859 27.1333 109.704 27.032V29H108.96V24.84H109.704V26.624C109.832 26.5013 109.979 26.36 110.144 26.2C110.31 26.0347 110.475 25.8693 110.64 25.704C110.811 25.5333 110.968 25.3733 111.112 25.224C111.256 25.0693 111.374 24.9413 111.464 24.84H112.328C112.211 24.968 112.072 25.1147 111.912 25.28C111.758 25.44 111.595 25.6053 111.424 25.776C111.259 25.9467 111.094 26.1173 110.928 26.288C110.763 26.4533 110.614 26.6027 110.48 26.736ZM115.865 28.464C116.041 28.464 116.196 28.4613 116.329 28.456C116.468 28.4453 116.583 28.4293 116.673 28.408V27.168C116.62 27.1413 116.532 27.12 116.409 27.104C116.292 27.0827 116.148 27.072 115.977 27.072C115.865 27.072 115.745 27.08 115.617 27.096C115.495 27.112 115.38 27.1467 115.273 27.2C115.172 27.248 115.087 27.3173 115.017 27.408C114.948 27.4933 114.913 27.608 114.913 27.752C114.913 28.0187 114.999 28.2053 115.169 28.312C115.34 28.4133 115.572 28.464 115.865 28.464ZM115.801 24.736C116.1 24.736 116.351 24.776 116.553 24.856C116.761 24.9307 116.927 25.04 117.049 25.184C117.177 25.3227 117.268 25.4907 117.321 25.688C117.375 25.88 117.401 26.0933 117.401 26.328V28.928C117.337 28.9387 117.247 28.9547 117.129 28.976C117.017 28.992 116.889 29.008 116.745 29.024C116.601 29.04 116.444 29.0533 116.273 29.064C116.108 29.08 115.943 29.088 115.777 29.088C115.543 29.088 115.327 29.064 115.129 29.016C114.932 28.968 114.761 28.8933 114.617 28.792C114.473 28.6853 114.361 28.5467 114.281 28.376C114.201 28.2053 114.161 28 114.161 27.76C114.161 27.5307 114.207 27.3333 114.297 27.168C114.393 27.0027 114.521 26.8693 114.681 26.768C114.841 26.6667 115.028 26.592 115.241 26.544C115.455 26.496 115.679 26.472 115.913 26.472C115.988 26.472 116.065 26.4773 116.145 26.488C116.225 26.4933 116.3 26.504 116.369 26.52C116.444 26.5307 116.508 26.5413 116.561 26.552C116.615 26.5627 116.652 26.5707 116.673 26.576V26.368C116.673 26.2453 116.66 26.1253 116.633 26.008C116.607 25.8853 116.559 25.7787 116.489 25.688C116.42 25.592 116.324 25.5173 116.201 25.464C116.084 25.4053 115.929 25.376 115.737 25.376C115.492 25.376 115.276 25.3947 115.089 25.432C114.908 25.464 114.772 25.4987 114.681 25.536L114.593 24.92C114.689 24.8773 114.849 24.8373 115.073 24.8C115.297 24.7573 115.54 24.736 115.801 24.736Z" fill="white"/>
</svg>
