<svg width="189" height="49" viewBox="0 0 189 49" fill="none" xmlns="http://www.w3.org/2000/svg">
<path d="M38.64 3.8C39.8933 3.8 40.92 3.76 41.72 3.68V4.48C40.1467 5.25333 38.9067 7.12 38 10.08L31.28 32C30.4267 31.9467 29.72 31.92 29.16 31.92C28.6267 31.92 27.9333 31.9467 27.08 32L21.88 16.12L16.24 32C15.3867 31.9467 14.68 31.92 14.12 31.92C13.5867 31.92 12.8933 31.9467 12.04 32L2.76 7.04C2.44 6.18667 2.06667 5.56 1.64 5.16C1.21333 4.73333 0.8 4.50667 0.4 4.48V3.68C2.32 3.76 4.68 3.8 7.48 3.8C9.90667 3.8 11.68 3.76 12.8 3.68V4.48C12.08 4.61333 11.72 5.14667 11.72 6.08C11.72 6.64 11.84 7.22667 12.08 7.84L17.88 24.16L21.4 14.64L18.68 6.36C18.4667 5.69333 18.2 5.22667 17.88 4.96C17.56 4.69333 17.1467 4.53333 16.64 4.48V3.68C18.4267 3.76 20.7333 3.8 23.56 3.8C26.3333 3.8 28.4 3.76 29.76 3.68V4.48C28.8 4.50667 28.1067 4.62667 27.68 4.84C27.2533 5.05333 27.04 5.44 27.04 6C27.04 6.50667 27.1733 7.12 27.44 7.84L32.72 23.88L35.8 14C36.52 11.6267 36.88 9.76 36.88 8.4C36.88 7.06667 36.5733 6.09333 35.96 5.48C35.3733 4.86666 34.52 4.53333 33.4 4.48V3.68C35.4 3.76 37.1467 3.8 38.64 3.8ZM50.0981 10.68C53.3781 10.68 55.9115 11.5467 57.6981 13.28C59.4848 14.9867 60.3781 17.7733 60.3781 21.64C60.3781 25.5067 59.4848 28.2933 57.6981 30C55.9115 31.7067 53.3781 32.56 50.0981 32.56C46.8181 32.56 44.2848 31.7067 42.4981 30C40.7115 28.2933 39.8181 25.5067 39.8181 21.64C39.8181 17.7733 40.7115 14.9867 42.4981 13.28C44.2848 11.5467 46.8181 10.68 50.0981 10.68ZM50.0981 11.48C49.2448 11.48 48.5648 12.32 48.0581 14C47.5515 15.68 47.2981 18.2267 47.2981 21.64C47.2981 25.0533 47.5515 27.6 48.0581 29.28C48.5648 30.9333 49.2448 31.76 50.0981 31.76C50.9515 31.76 51.6315 30.9333 52.1381 29.28C52.6448 27.6 52.8981 25.0533 52.8981 21.64C52.8981 18.2267 52.6448 15.68 52.1381 14C51.6315 12.32 50.9515 11.48 50.0981 11.48ZM73.145 10.68C76.425 10.68 78.9583 11.5467 80.745 13.28C82.5317 14.9867 83.425 17.7733 83.425 21.64C83.425 25.5067 82.5317 28.2933 80.745 30C78.9583 31.7067 76.425 32.56 73.145 32.56C69.865 32.56 67.3317 31.7067 65.545 30C63.7583 28.2933 62.865 25.5067 62.865 21.64C62.865 17.7733 63.7583 14.9867 65.545 13.28C67.3317 11.5467 69.865 10.68 73.145 10.68ZM73.145 11.48C72.2917 11.48 71.6117 12.32 71.105 14C70.5983 15.68 70.345 18.2267 70.345 21.64C70.345 25.0533 70.5983 27.6 71.105 29.28C71.6117 30.9333 72.2917 31.76 73.145 31.76C73.9983 31.76 74.6783 30.9333 75.185 29.28C75.6917 27.6 75.945 25.0533 75.945 21.64C75.945 18.2267 75.6917 15.68 75.185 14C74.6783 12.32 73.9983 11.48 73.145 11.48ZM106.152 27.6C106.152 28.8267 106.312 29.72 106.632 30.28C106.979 30.84 107.565 31.12 108.392 31.12V31.96C107.565 31.88 106.739 31.84 105.912 31.84C103.139 31.84 100.819 32.0267 98.9519 32.4V29.56C98.3919 30.6 97.7252 31.36 96.9519 31.84C96.2052 32.32 95.2452 32.56 94.0719 32.56C91.6185 32.56 89.6452 31.6533 88.1519 29.84C86.6585 28 85.9119 25.2133 85.9119 21.48C85.9119 17.9333 86.6985 15.2533 88.2719 13.44C89.8719 11.6 92.0452 10.68 94.7919 10.68C96.4985 10.68 97.8852 11.0133 98.9519 11.68V5.52C98.9519 4.29333 98.7785 3.4 98.4319 2.84C98.1119 2.28 97.5385 2 96.7119 2V1.16C97.5385 1.24 98.3652 1.28 99.1919 1.28C101.965 1.28 104.285 1.09333 106.152 0.719997V27.6ZM96.0719 30.48C96.8452 30.48 97.5119 30.2133 98.0719 29.68C98.6585 29.12 98.9519 28.4267 98.9519 27.6V12.52C98.3652 12.1733 97.7385 12 97.0719 12C95.8185 12 94.8852 12.8 94.2719 14.4C93.6852 15.9733 93.3919 18.3733 93.3919 21.6C93.3919 24.88 93.6319 27.1867 94.1119 28.52C94.5919 29.8267 95.2452 30.48 96.0719 30.48ZM140.927 28.28C140.927 29.3733 141.154 30.1333 141.607 30.56C142.06 30.96 142.847 31.16 143.967 31.16V32C141.514 31.8933 139.914 31.84 139.167 31.84C138.42 31.84 136.927 31.8933 134.687 32V31.16C135.674 31.16 136.354 30.96 136.727 30.56C137.127 30.1333 137.327 29.3733 137.327 28.28V16.72C137.327 15.7067 137.26 14.8933 137.127 14.28C137.02 13.64 136.74 13.12 136.287 12.72C135.86 12.32 135.194 12.12 134.287 12.12C133.274 12.12 132.354 12.44 131.527 13.08C130.7 13.72 130.047 14.6 129.567 15.72C129.114 16.8133 128.887 18.0267 128.887 19.36V28.28C128.887 29.3733 129.114 30.1333 129.567 30.56C130.02 30.96 130.807 31.16 131.927 31.16V32C129.474 31.8933 127.874 31.84 127.127 31.84C126.38 31.84 124.887 31.8933 122.647 32V31.16C123.634 31.16 124.314 30.96 124.687 30.56C125.087 30.1333 125.287 29.3733 125.287 28.28V16.72C125.287 15.7067 125.22 14.8933 125.087 14.28C124.98 13.64 124.7 13.12 124.247 12.72C123.82 12.32 123.154 12.12 122.247 12.12C121.234 12.12 120.314 12.44 119.487 13.08C118.66 13.72 118.007 14.6 117.527 15.72C117.074 16.84 116.847 18.0667 116.847 19.4V28.28C116.847 29.3733 117.034 30.1333 117.407 30.56C117.807 30.96 118.5 31.16 119.487 31.16V32C117.247 31.8933 115.754 31.84 115.007 31.84C114.26 31.84 112.66 31.8933 110.207 32V31.16C111.327 31.16 112.114 30.96 112.567 30.56C113.02 30.1333 113.247 29.3733 113.247 28.28V15.76C113.247 14.5333 113.02 13.64 112.567 13.08C112.114 12.52 111.327 12.24 110.207 12.24V11.4C111.06 11.48 111.887 11.52 112.687 11.52C114.367 11.52 115.754 11.3333 116.847 10.96V15.68C117.487 14.0267 118.394 12.8133 119.567 12.04C120.74 11.24 122.02 10.84 123.407 10.84C125.22 10.84 126.607 11.3467 127.567 12.36C128.234 13.0533 128.647 14.12 128.807 15.56C129.474 13.88 130.394 12.68 131.567 11.96C132.74 11.2133 134.034 10.84 135.447 10.84C137.26 10.84 138.647 11.3467 139.607 12.36C140.087 12.8933 140.42 13.5733 140.607 14.4C140.82 15.2267 140.927 16.2933 140.927 17.6V28.28ZM151.075 32.28C149.395 32.28 148.141 31.8667 147.315 31.04C146.515 30.1867 146.115 29.0133 146.115 27.52C146.115 26.32 146.435 25.3333 147.075 24.56C147.741 23.7867 148.515 23.1733 149.395 22.72C150.301 22.2667 151.488 21.7867 152.955 21.28C154.448 20.7733 155.555 20.3067 156.275 19.88C156.995 19.4533 157.355 18.88 157.355 18.16V15.68C157.355 14.1333 157.021 13.08 156.355 12.52C155.715 11.9333 154.808 11.64 153.635 11.64C151.768 11.64 150.448 12.12 149.675 13.08C150.208 13.2133 150.648 13.4933 150.995 13.92C151.368 14.3467 151.555 14.88 151.555 15.52C151.555 16.1867 151.341 16.72 150.915 17.12C150.488 17.4933 149.941 17.68 149.275 17.68C148.528 17.68 147.968 17.4533 147.595 17C147.221 16.52 147.035 15.9467 147.035 15.28C147.035 14.64 147.181 14.1067 147.475 13.68C147.795 13.2533 148.261 12.8267 148.875 12.4C149.515 11.9467 150.328 11.5733 151.315 11.28C152.301 10.9867 153.381 10.84 154.555 10.84C156.635 10.84 158.208 11.3333 159.275 12.32C159.941 12.9333 160.381 13.68 160.595 14.56C160.835 15.4133 160.955 16.5467 160.955 17.96V29.08C160.955 29.7467 161.048 30.2267 161.235 30.52C161.421 30.8133 161.741 30.96 162.195 30.96C162.515 30.96 162.808 30.8933 163.075 30.76C163.368 30.6 163.675 30.3867 163.995 30.12L164.435 30.8C163.741 31.3333 163.141 31.72 162.635 31.96C162.155 32.1733 161.541 32.28 160.795 32.28C159.515 32.28 158.621 31.96 158.115 31.32C157.608 30.68 157.355 29.8133 157.355 28.72C156.555 30.0533 155.635 30.9867 154.595 31.52C153.555 32.0267 152.381 32.28 151.075 32.28ZM152.835 30.68C154.595 30.68 156.101 29.6667 157.355 27.64V19.8C157.115 20.1733 156.781 20.48 156.355 20.72C155.928 20.96 155.275 21.28 154.395 21.68C153.381 22.1067 152.555 22.52 151.915 22.92C151.301 23.2933 150.768 23.8133 150.315 24.48C149.861 25.1467 149.635 26 149.635 27.04C149.635 28.24 149.928 29.1467 150.515 29.76C151.101 30.3733 151.875 30.68 152.835 30.68ZM179.077 10.84C180.943 10.84 182.357 11.3467 183.317 12.36C183.823 12.8933 184.183 13.56 184.397 14.36C184.61 15.16 184.717 16.24 184.717 17.6V28.28C184.717 29.3733 184.943 30.1333 185.397 30.56C185.85 30.96 186.637 31.16 187.757 31.16V32C185.303 31.8933 183.703 31.84 182.957 31.84C182.21 31.84 180.717 31.8933 178.477 32V31.16C179.463 31.16 180.143 30.96 180.517 30.56C180.917 30.1333 181.117 29.3733 181.117 28.28V16.72C181.117 15.2267 180.903 14.0933 180.477 13.32C180.05 12.52 179.183 12.12 177.877 12.12C176.783 12.12 175.81 12.44 174.957 13.08C174.103 13.72 173.437 14.6 172.957 15.72C172.503 16.8133 172.277 18.04 172.277 19.4V28.28C172.277 29.3733 172.463 30.1333 172.837 30.56C173.237 30.96 173.93 31.16 174.917 31.16V32C172.677 31.8933 171.183 31.84 170.437 31.84C169.69 31.84 168.09 31.8933 165.637 32V31.16C166.757 31.16 167.543 30.96 167.997 30.56C168.45 30.1333 168.677 29.3733 168.677 28.28V15.76C168.677 14.5333 168.45 13.64 167.997 13.08C167.543 12.52 166.757 12.24 165.637 12.24V11.4C166.49 11.48 167.317 11.52 168.117 11.52C169.797 11.52 171.183 11.3333 172.277 10.96V15.68C172.943 13.9733 173.863 12.7467 175.037 12C176.237 11.2267 177.583 10.84 179.077 10.84Z" fill="white"/>
<path d="M36.161 44.752C36.0743 44.544 35.9573 44.2797 35.81 43.959C35.6713 43.6383 35.5197 43.2917 35.355 42.919C35.1903 42.5463 35.0127 42.165 34.822 41.775C34.64 41.3763 34.4667 41.0037 34.302 40.657C34.1373 40.3017 33.9813 39.9853 33.834 39.708C33.6953 39.4307 33.5827 39.2183 33.496 39.071C33.4007 40.0937 33.3227 41.203 33.262 42.399C33.2013 43.5863 33.1493 44.7867 33.106 46H31.871C31.9057 45.22 31.9447 44.4357 31.988 43.647C32.0313 42.8497 32.079 42.0697 32.131 41.307C32.1917 40.5357 32.2523 39.786 32.313 39.058C32.3823 38.33 32.456 37.641 32.534 36.991H33.639C33.873 37.3723 34.1243 37.823 34.393 38.343C34.6617 38.863 34.9303 39.409 35.199 39.981C35.4677 40.5443 35.7277 41.112 35.979 41.684C36.2303 42.2473 36.46 42.763 36.668 43.231C36.876 42.763 37.1057 42.2473 37.357 41.684C37.6083 41.112 37.8683 40.5443 38.137 39.981C38.4057 39.409 38.6743 38.863 38.943 38.343C39.2117 37.823 39.463 37.3723 39.697 36.991H40.802C41.0967 39.8943 41.3177 42.8973 41.465 46H40.23C40.1867 44.7867 40.1347 43.5863 40.074 42.399C40.0133 41.203 39.9353 40.0937 39.84 39.071C39.7533 39.2183 39.6363 39.4307 39.489 39.708C39.3503 39.9853 39.1987 40.3017 39.034 40.657C38.8693 41.0037 38.6917 41.3763 38.501 41.775C38.319 42.165 38.1457 42.5463 37.981 42.919C37.8163 43.2917 37.6603 43.6383 37.513 43.959C37.3743 44.2797 37.2617 44.544 37.175 44.752H36.161ZM44.9372 42.633C44.9372 42.035 45.0239 41.515 45.1972 41.073C45.3706 40.6223 45.6002 40.2497 45.8862 39.955C46.1722 39.6603 46.5016 39.4393 46.8742 39.292C47.2469 39.1447 47.6282 39.071 48.0182 39.071C48.9282 39.071 49.6259 39.357 50.1112 39.929C50.5966 40.4923 50.8392 41.3547 50.8392 42.516C50.8392 42.568 50.8392 42.6373 50.8392 42.724C50.8392 42.802 50.8349 42.8757 50.8262 42.945H46.1982C46.2502 43.647 46.4539 44.18 46.8092 44.544C47.1646 44.908 47.7192 45.09 48.4732 45.09C48.8979 45.09 49.2532 45.0553 49.5392 44.986C49.8339 44.908 50.0549 44.8343 50.2022 44.765L50.3712 45.779C50.2239 45.857 49.9639 45.9393 49.5912 46.026C49.2272 46.1127 48.8112 46.156 48.3432 46.156C47.7539 46.156 47.2426 46.0693 46.8092 45.896C46.3846 45.714 46.0336 45.467 45.7562 45.155C45.4789 44.843 45.2709 44.4747 45.1322 44.05C45.0022 43.6167 44.9372 43.1443 44.9372 42.633ZM49.5782 41.97C49.5869 41.424 49.4482 40.9777 49.1622 40.631C48.8849 40.2757 48.4992 40.098 48.0052 40.098C47.7279 40.098 47.4809 40.1543 47.2642 40.267C47.0562 40.371 46.8786 40.5097 46.7312 40.683C46.5839 40.8563 46.4669 41.0557 46.3802 41.281C46.3022 41.5063 46.2502 41.736 46.2242 41.97H49.5782ZM55.6179 40.02C55.8866 39.8033 56.1986 39.6387 56.5539 39.526C56.9179 39.4047 57.2646 39.344 57.5939 39.344C58.5646 39.344 59.2969 39.643 59.7909 40.241C60.2936 40.8303 60.5449 41.6537 60.5449 42.711C60.5449 43.1617 60.4843 43.595 60.3629 44.011C60.2416 44.427 60.0509 44.7953 59.7909 45.116C59.5396 45.4367 59.2189 45.6923 58.8289 45.883C58.4389 46.0737 57.9753 46.169 57.4379 46.169C56.8226 46.169 56.3113 46.0563 55.9039 45.831C55.4966 45.6057 55.1716 45.298 54.9289 44.908C54.6949 44.518 54.5303 44.063 54.4349 43.543C54.3396 43.023 54.2919 42.4727 54.2919 41.892C54.2919 41.138 54.3439 40.436 54.4479 39.786C54.5606 39.136 54.7599 38.564 55.0459 38.07C55.3319 37.576 55.7263 37.1687 56.2289 36.848C56.7403 36.5187 57.3946 36.2977 58.1919 36.185C58.4259 36.1503 58.6296 36.1243 58.8029 36.107C58.9849 36.081 59.1409 36.0593 59.2709 36.042C59.4096 36.0247 59.5353 36.0073 59.6479 35.99C59.7606 35.964 59.8776 35.938 59.9989 35.912L60.1289 37.004C60.0683 37.0213 60.0033 37.0343 59.9339 37.043C59.8733 37.0517 59.7823 37.0647 59.6609 37.082C59.5483 37.0993 59.3923 37.121 59.1929 37.147C59.0023 37.173 58.7509 37.2033 58.4389 37.238C57.5809 37.3333 56.9223 37.5933 56.4629 38.018C56.0036 38.4427 55.7219 39.11 55.6179 40.02ZM55.5399 42.087C55.5399 42.4943 55.5659 42.88 55.6179 43.244C55.6786 43.608 55.7783 43.9287 55.9169 44.206C56.0643 44.4833 56.2593 44.7043 56.5019 44.869C56.7446 45.025 57.0566 45.103 57.4379 45.103C57.7673 45.103 58.0489 45.0423 58.2829 44.921C58.5169 44.791 58.7076 44.6177 58.8549 44.401C59.0023 44.1843 59.1106 43.933 59.1799 43.647C59.2493 43.3523 59.2839 43.0403 59.2839 42.711C59.2839 42.4163 59.2536 42.1303 59.1929 41.853C59.1409 41.5757 59.0413 41.3287 58.8939 41.112C58.7466 40.8953 58.5473 40.722 58.2959 40.592C58.0533 40.462 57.7456 40.397 57.3729 40.397C57.0089 40.397 56.6579 40.475 56.3199 40.631C55.9906 40.787 55.7349 40.9777 55.5529 41.203C55.5443 41.2983 55.5399 41.4327 55.5399 41.606C55.5399 41.7793 55.5399 41.9397 55.5399 42.087ZM63.8304 42.633C63.8304 42.035 63.917 41.515 64.0904 41.073C64.2637 40.6223 64.4934 40.2497 64.7794 39.955C65.0654 39.6603 65.3947 39.4393 65.7674 39.292C66.14 39.1447 66.5214 39.071 66.9114 39.071C67.8214 39.071 68.519 39.357 69.0044 39.929C69.4897 40.4923 69.7324 41.3547 69.7324 42.516C69.7324 42.568 69.7324 42.6373 69.7324 42.724C69.7324 42.802 69.728 42.8757 69.7194 42.945H65.0914C65.1434 43.647 65.347 44.18 65.7024 44.544C66.0577 44.908 66.6124 45.09 67.3664 45.09C67.791 45.09 68.1464 45.0553 68.4324 44.986C68.727 44.908 68.948 44.8343 69.0954 44.765L69.2644 45.779C69.117 45.857 68.857 45.9393 68.4844 46.026C68.1204 46.1127 67.7044 46.156 67.2364 46.156C66.647 46.156 66.1357 46.0693 65.7024 45.896C65.2777 45.714 64.9267 45.467 64.6494 45.155C64.372 44.843 64.164 44.4747 64.0254 44.05C63.8954 43.6167 63.8304 43.1443 63.8304 42.633ZM68.4714 41.97C68.48 41.424 68.3414 40.9777 68.0554 40.631C67.778 40.2757 67.3924 40.098 66.8984 40.098C66.621 40.098 66.374 40.1543 66.1574 40.267C65.9494 40.371 65.7717 40.5097 65.6244 40.683C65.477 40.8563 65.36 41.0557 65.2734 41.281C65.1954 41.5063 65.1434 41.736 65.1174 41.97H68.4714ZM75.7721 40.254C75.7721 40.54 75.7634 40.8477 75.7461 41.177C75.7374 41.4977 75.7158 41.8227 75.6811 42.152C75.6464 42.4727 75.5988 42.7933 75.5381 43.114C75.4774 43.426 75.3994 43.7207 75.3041 43.998C75.2088 44.2753 75.0874 44.5353 74.9401 44.778C74.8014 45.0207 74.6281 45.2373 74.4201 45.428C74.2121 45.61 73.9694 45.766 73.6921 45.896C73.4148 46.0173 73.0898 46.0953 72.7171 46.13L72.5481 45.116C72.9728 45.0293 73.3064 44.869 73.5491 44.635C73.8004 44.401 73.9998 44.115 74.1471 43.777C74.2771 43.4823 74.3724 43.1487 74.4331 42.776C74.4938 42.4033 74.5371 42.0177 74.5631 41.619C74.5891 41.2117 74.6021 40.8043 74.6021 40.397C74.6108 39.9897 74.6151 39.604 74.6151 39.24H79.1131V46H77.9041V40.254H75.7721ZM85.6996 45.155C86.211 45.155 86.614 45.0553 86.9086 44.856C87.2033 44.6567 87.3506 44.336 87.3506 43.894C87.3506 43.6773 87.3073 43.491 87.2206 43.335C87.134 43.179 87.0126 43.0533 86.8566 42.958C86.7093 42.854 86.536 42.7803 86.3366 42.737C86.1373 42.685 85.925 42.659 85.6996 42.659C85.4656 42.659 85.223 42.6677 84.9716 42.685C84.729 42.6937 84.521 42.7197 84.3476 42.763V45.09C84.3996 45.0987 84.4776 45.1073 84.5816 45.116C84.6856 45.1247 84.7983 45.1333 84.9196 45.142C85.0496 45.142 85.1796 45.1463 85.3096 45.155C85.4483 45.155 85.5783 45.155 85.6996 45.155ZM83.1386 45.857V39.24H84.3476V41.827C84.417 41.8097 84.508 41.7923 84.6206 41.775C84.742 41.7577 84.8676 41.7403 84.9976 41.723C85.1363 41.7057 85.2793 41.6927 85.4266 41.684C85.574 41.6753 85.7126 41.671 85.8426 41.671C86.2153 41.671 86.5663 41.7143 86.8956 41.801C87.225 41.879 87.511 42.009 87.7536 42.191C88.005 42.3643 88.2043 42.594 88.3516 42.88C88.499 43.1573 88.5726 43.491 88.5726 43.881C88.5726 44.2883 88.5033 44.635 88.3646 44.921C88.226 45.207 88.0266 45.441 87.7666 45.623C87.5066 45.805 87.1946 45.935 86.8306 46.013C86.4753 46.0997 86.0766 46.143 85.6346 46.143C85.2013 46.143 84.7766 46.117 84.3606 46.065C83.9446 46.0217 83.5373 45.9523 83.1386 45.857ZM97.4948 46H96.2858V43.01H93.1658V46H91.9568V39.24H93.1658V41.996H96.2858V39.24H97.4948V46ZM103.812 45.129C104.098 45.129 104.349 45.1247 104.566 45.116C104.791 45.0987 104.978 45.0727 105.125 45.038V43.023C105.038 42.9797 104.895 42.945 104.696 42.919C104.505 42.8843 104.271 42.867 103.994 42.867C103.812 42.867 103.617 42.88 103.409 42.906C103.21 42.932 103.023 42.9883 102.85 43.075C102.685 43.153 102.547 43.2657 102.434 43.413C102.321 43.5517 102.265 43.738 102.265 43.972C102.265 44.4053 102.404 44.7087 102.681 44.882C102.958 45.0467 103.335 45.129 103.812 45.129ZM103.708 39.071C104.193 39.071 104.601 39.136 104.93 39.266C105.268 39.3873 105.537 39.565 105.736 39.799C105.944 40.0243 106.091 40.2973 106.178 40.618C106.265 40.93 106.308 41.2767 106.308 41.658V45.883C106.204 45.9003 106.057 45.9263 105.866 45.961C105.684 45.987 105.476 46.013 105.242 46.039C105.008 46.065 104.752 46.0867 104.475 46.104C104.206 46.13 103.938 46.143 103.669 46.143C103.288 46.143 102.937 46.104 102.616 46.026C102.295 45.948 102.018 45.8267 101.784 45.662C101.55 45.4887 101.368 45.2633 101.238 44.986C101.108 44.7087 101.043 44.375 101.043 43.985C101.043 43.6123 101.117 43.2917 101.264 43.023C101.42 42.7543 101.628 42.5377 101.888 42.373C102.148 42.2083 102.451 42.087 102.798 42.009C103.145 41.931 103.509 41.892 103.89 41.892C104.011 41.892 104.137 41.9007 104.267 41.918C104.397 41.9267 104.518 41.944 104.631 41.97C104.752 41.9873 104.856 42.0047 104.943 42.022C105.03 42.0393 105.09 42.0523 105.125 42.061V41.723C105.125 41.5237 105.103 41.3287 105.06 41.138C105.017 40.9387 104.939 40.7653 104.826 40.618C104.713 40.462 104.557 40.3407 104.358 40.254C104.167 40.1587 103.916 40.111 103.604 40.111C103.205 40.111 102.854 40.1413 102.551 40.202C102.256 40.254 102.035 40.3103 101.888 40.371L101.745 39.37C101.901 39.3007 102.161 39.2357 102.525 39.175C102.889 39.1057 103.283 39.071 103.708 39.071ZM113.061 43.374C112.931 43.374 112.805 43.374 112.684 43.374C112.563 43.3653 112.446 43.3567 112.333 43.348C112.056 43.764 111.787 44.2103 111.527 44.687C111.276 45.155 111.05 45.5927 110.851 46H109.629C109.733 45.7487 109.854 45.493 109.993 45.233C110.132 44.9643 110.27 44.7043 110.409 44.453C110.556 44.2017 110.704 43.9633 110.851 43.738C110.998 43.5127 111.137 43.309 111.267 43.127C111.024 43.0403 110.825 42.9363 110.669 42.815C110.513 42.685 110.387 42.542 110.292 42.386C110.197 42.23 110.127 42.0653 110.084 41.892C110.049 41.71 110.032 41.528 110.032 41.346C110.032 40.9647 110.101 40.631 110.24 40.345C110.387 40.059 110.587 39.825 110.838 39.643C111.089 39.4523 111.384 39.3093 111.722 39.214C112.069 39.1187 112.446 39.071 112.853 39.071C113.425 39.071 113.91 39.097 114.309 39.149C114.708 39.201 115.041 39.2617 115.31 39.331V46H114.114V43.374H113.061ZM114.114 40.137C114.019 40.1197 113.858 40.1023 113.633 40.085C113.416 40.0677 113.165 40.059 112.879 40.059C112.385 40.059 111.986 40.163 111.683 40.371C111.38 40.5703 111.228 40.891 111.228 41.333C111.228 41.7663 111.384 42.0653 111.696 42.23C112.008 42.3947 112.411 42.477 112.905 42.477H114.114V40.137ZM125.142 42.62C125.142 43.0013 125.203 43.3393 125.324 43.634C125.454 43.9287 125.632 44.18 125.857 44.388C126.082 44.5873 126.347 44.7433 126.65 44.856C126.962 44.96 127.296 45.0163 127.651 45.025V40.215C127.296 40.2237 126.962 40.2843 126.65 40.397C126.347 40.5097 126.082 40.67 125.857 40.878C125.632 41.0773 125.454 41.3243 125.324 41.619C125.203 41.9137 125.142 42.2473 125.142 42.62ZM128.821 45.025C129.176 45.0163 129.506 44.96 129.809 44.856C130.121 44.7433 130.39 44.5873 130.615 44.388C130.84 44.18 131.014 43.9287 131.135 43.634C131.265 43.3393 131.33 43.0013 131.33 42.62C131.33 42.2473 131.265 41.9137 131.135 41.619C131.014 41.3243 130.84 41.0773 130.615 40.878C130.39 40.67 130.121 40.5097 129.809 40.397C129.506 40.2843 129.176 40.2237 128.821 40.215V45.025ZM128.821 48.405H127.651V46.039C127.14 46.0303 126.659 45.948 126.208 45.792C125.757 45.636 125.359 45.415 125.012 45.129C124.674 44.8343 124.405 44.479 124.206 44.063C124.007 43.6383 123.907 43.1573 123.907 42.62C123.907 42.0827 124.007 41.606 124.206 41.19C124.405 40.7653 124.674 40.41 125.012 40.124C125.359 39.8293 125.757 39.604 126.208 39.448C126.659 39.292 127.14 39.2097 127.651 39.201V36.12L128.821 35.912V39.201C129.324 39.2097 129.8 39.292 130.251 39.448C130.71 39.604 131.109 39.8293 131.447 40.124C131.794 40.41 132.067 40.7653 132.266 41.19C132.465 41.606 132.565 42.0827 132.565 42.62C132.565 43.1573 132.465 43.6383 132.266 44.063C132.067 44.479 131.794 44.8343 131.447 45.129C131.109 45.415 130.71 45.636 130.251 45.792C129.8 45.948 129.324 46.0303 128.821 46.039V48.405ZM138.488 45.129C138.774 45.129 139.025 45.1247 139.242 45.116C139.467 45.0987 139.654 45.0727 139.801 45.038V43.023C139.714 42.9797 139.571 42.945 139.372 42.919C139.181 42.8843 138.947 42.867 138.67 42.867C138.488 42.867 138.293 42.88 138.085 42.906C137.886 42.932 137.699 42.9883 137.526 43.075C137.361 43.153 137.223 43.2657 137.11 43.413C136.997 43.5517 136.941 43.738 136.941 43.972C136.941 44.4053 137.08 44.7087 137.357 44.882C137.634 45.0467 138.011 45.129 138.488 45.129ZM138.384 39.071C138.869 39.071 139.277 39.136 139.606 39.266C139.944 39.3873 140.213 39.565 140.412 39.799C140.62 40.0243 140.767 40.2973 140.854 40.618C140.941 40.93 140.984 41.2767 140.984 41.658V45.883C140.88 45.9003 140.733 45.9263 140.542 45.961C140.36 45.987 140.152 46.013 139.918 46.039C139.684 46.065 139.428 46.0867 139.151 46.104C138.882 46.13 138.614 46.143 138.345 46.143C137.964 46.143 137.613 46.104 137.292 46.026C136.971 45.948 136.694 45.8267 136.46 45.662C136.226 45.4887 136.044 45.2633 135.914 44.986C135.784 44.7087 135.719 44.375 135.719 43.985C135.719 43.6123 135.793 43.2917 135.94 43.023C136.096 42.7543 136.304 42.5377 136.564 42.373C136.824 42.2083 137.127 42.087 137.474 42.009C137.821 41.931 138.185 41.892 138.566 41.892C138.687 41.892 138.813 41.9007 138.943 41.918C139.073 41.9267 139.194 41.944 139.307 41.97C139.428 41.9873 139.532 42.0047 139.619 42.022C139.706 42.0393 139.766 42.0523 139.801 42.061V41.723C139.801 41.5237 139.779 41.3287 139.736 41.138C139.693 40.9387 139.615 40.7653 139.502 40.618C139.389 40.462 139.233 40.3407 139.034 40.254C138.843 40.1587 138.592 40.111 138.28 40.111C137.881 40.111 137.53 40.1413 137.227 40.202C136.932 40.254 136.711 40.3103 136.564 40.371L136.421 39.37C136.577 39.3007 136.837 39.2357 137.201 39.175C137.565 39.1057 137.959 39.071 138.384 39.071ZM146.034 40.02C146.303 39.8033 146.615 39.6387 146.97 39.526C147.334 39.4047 147.681 39.344 148.01 39.344C148.981 39.344 149.713 39.643 150.207 40.241C150.71 40.8303 150.961 41.6537 150.961 42.711C150.961 43.1617 150.9 43.595 150.779 44.011C150.658 44.427 150.467 44.7953 150.207 45.116C149.956 45.4367 149.635 45.6923 149.245 45.883C148.855 46.0737 148.391 46.169 147.854 46.169C147.239 46.169 146.727 46.0563 146.32 45.831C145.913 45.6057 145.588 45.298 145.345 44.908C145.111 44.518 144.946 44.063 144.851 43.543C144.756 43.023 144.708 42.4727 144.708 41.892C144.708 41.138 144.76 40.436 144.864 39.786C144.977 39.136 145.176 38.564 145.462 38.07C145.748 37.576 146.142 37.1687 146.645 36.848C147.156 36.5187 147.811 36.2977 148.608 36.185C148.842 36.1503 149.046 36.1243 149.219 36.107C149.401 36.081 149.557 36.0593 149.687 36.042C149.826 36.0247 149.951 36.0073 150.064 35.99C150.177 35.964 150.294 35.938 150.415 35.912L150.545 37.004C150.484 37.0213 150.419 37.0343 150.35 37.043C150.289 37.0517 150.198 37.0647 150.077 37.082C149.964 37.0993 149.808 37.121 149.609 37.147C149.418 37.173 149.167 37.2033 148.855 37.238C147.997 37.3333 147.338 37.5933 146.879 38.018C146.42 38.4427 146.138 39.11 146.034 40.02ZM145.956 42.087C145.956 42.4943 145.982 42.88 146.034 43.244C146.095 43.608 146.194 43.9287 146.333 44.206C146.48 44.4833 146.675 44.7043 146.918 44.869C147.161 45.025 147.473 45.103 147.854 45.103C148.183 45.103 148.465 45.0423 148.699 44.921C148.933 44.791 149.124 44.6177 149.271 44.401C149.418 44.1843 149.527 43.933 149.596 43.647C149.665 43.3523 149.7 43.0403 149.7 42.711C149.7 42.4163 149.67 42.1303 149.609 41.853C149.557 41.5757 149.457 41.3287 149.31 41.112C149.163 40.8953 148.963 40.722 148.712 40.592C148.469 40.462 148.162 40.397 147.789 40.397C147.425 40.397 147.074 40.475 146.736 40.631C146.407 40.787 146.151 40.9777 145.969 41.203C145.96 41.2983 145.956 41.4327 145.956 41.606C145.956 41.7793 145.956 41.9397 145.956 42.087ZM159.316 42.633C159.316 41.8443 159.121 41.2377 158.731 40.813C158.341 40.3883 157.821 40.176 157.171 40.176C156.807 40.176 156.521 40.189 156.313 40.215C156.114 40.241 155.954 40.2713 155.832 40.306V44.57C155.98 44.6913 156.192 44.8083 156.469 44.921C156.747 45.0337 157.05 45.09 157.379 45.09C157.726 45.09 158.021 45.0293 158.263 44.908C158.515 44.778 158.718 44.6047 158.874 44.388C159.03 44.1627 159.143 43.9027 159.212 43.608C159.282 43.3047 159.316 42.9797 159.316 42.633ZM160.577 42.633C160.577 43.1443 160.508 43.6167 160.369 44.05C160.239 44.4833 160.044 44.856 159.784 45.168C159.524 45.48 159.204 45.7227 158.822 45.896C158.45 46.0693 158.021 46.156 157.535 46.156C157.145 46.156 156.799 46.104 156.495 46C156.201 45.896 155.98 45.7963 155.832 45.701V48.405H154.623V39.448C154.909 39.3787 155.265 39.305 155.689 39.227C156.123 39.1403 156.621 39.097 157.184 39.097C157.704 39.097 158.172 39.1793 158.588 39.344C159.004 39.5087 159.36 39.7427 159.654 40.046C159.949 40.3493 160.174 40.722 160.33 41.164C160.495 41.5973 160.577 42.087 160.577 42.633ZM169.91 39.24V46H168.74V40.852C168.48 41.1813 168.194 41.567 167.882 42.009C167.57 42.451 167.258 42.9103 166.946 43.387C166.634 43.855 166.335 44.3187 166.049 44.778C165.763 45.2373 165.516 45.6447 165.308 46H164.229V39.24H165.399V44.102C165.624 43.7293 165.88 43.322 166.166 42.88C166.452 42.4293 166.746 41.9873 167.05 41.554C167.362 41.112 167.669 40.6917 167.973 40.293C168.285 39.8857 168.575 39.5347 168.844 39.24H169.91ZM176.406 42.321C176.674 42.5117 176.965 42.7543 177.277 43.049C177.589 43.335 177.892 43.647 178.187 43.985C178.49 44.323 178.772 44.6697 179.032 45.025C179.292 45.3717 179.513 45.6967 179.695 46H178.265C178.074 45.7053 177.849 45.4063 177.589 45.103C177.337 44.791 177.073 44.492 176.796 44.206C176.518 43.92 176.237 43.6557 175.951 43.413C175.665 43.1703 175.396 42.9667 175.145 42.802V46H173.936V39.24H175.145V42.139C175.353 41.9397 175.591 41.71 175.86 41.45C176.128 41.1813 176.397 40.9127 176.666 40.644C176.943 40.3667 177.199 40.1067 177.433 39.864C177.667 39.6127 177.857 39.4047 178.005 39.24H179.409C179.218 39.448 178.993 39.6863 178.733 39.955C178.481 40.215 178.217 40.4837 177.94 40.761C177.671 41.0383 177.402 41.3157 177.134 41.593C176.865 41.8617 176.622 42.1043 176.406 42.321ZM185.156 45.129C185.442 45.129 185.693 45.1247 185.91 45.116C186.135 45.0987 186.322 45.0727 186.469 45.038V43.023C186.382 42.9797 186.239 42.945 186.04 42.919C185.849 42.8843 185.615 42.867 185.338 42.867C185.156 42.867 184.961 42.88 184.753 42.906C184.554 42.932 184.367 42.9883 184.194 43.075C184.029 43.153 183.891 43.2657 183.778 43.413C183.665 43.5517 183.609 43.738 183.609 43.972C183.609 44.4053 183.748 44.7087 184.025 44.882C184.302 45.0467 184.679 45.129 185.156 45.129ZM185.052 39.071C185.537 39.071 185.945 39.136 186.274 39.266C186.612 39.3873 186.881 39.565 187.08 39.799C187.288 40.0243 187.435 40.2973 187.522 40.618C187.609 40.93 187.652 41.2767 187.652 41.658V45.883C187.548 45.9003 187.401 45.9263 187.21 45.961C187.028 45.987 186.82 46.013 186.586 46.039C186.352 46.065 186.096 46.0867 185.819 46.104C185.55 46.13 185.282 46.143 185.013 46.143C184.632 46.143 184.281 46.104 183.96 46.026C183.639 45.948 183.362 45.8267 183.128 45.662C182.894 45.4887 182.712 45.2633 182.582 44.986C182.452 44.7087 182.387 44.375 182.387 43.985C182.387 43.6123 182.461 43.2917 182.608 43.023C182.764 42.7543 182.972 42.5377 183.232 42.373C183.492 42.2083 183.795 42.087 184.142 42.009C184.489 41.931 184.853 41.892 185.234 41.892C185.355 41.892 185.481 41.9007 185.611 41.918C185.741 41.9267 185.862 41.944 185.975 41.97C186.096 41.9873 186.2 42.0047 186.287 42.022C186.374 42.0393 186.434 42.0523 186.469 42.061V41.723C186.469 41.5237 186.447 41.3287 186.404 41.138C186.361 40.9387 186.283 40.7653 186.17 40.618C186.057 40.462 185.901 40.3407 185.702 40.254C185.511 40.1587 185.26 40.111 184.948 40.111C184.549 40.111 184.198 40.1413 183.895 40.202C183.6 40.254 183.379 40.3103 183.232 40.371L183.089 39.37C183.245 39.3007 183.505 39.2357 183.869 39.175C184.233 39.1057 184.627 39.071 185.052 39.071Z" fill="white"/>
</svg>
